<?xml version="1.0" encoding="UTF-8" standalone="no"?>
<svg xmlns="http://www.w3.org/2000/svg" viewBox="0 0 24 24"><title>At Symbol</title><g id="At_Symbol" data-name="At Symbol"><path d="M10.63.08A12,12,0,0,0,12.93,24a12.36,12.36,0,0,0,7.44-3.36l.18-.16a.5.5,0,0,0,0-.71L19.89,19a.5.5,0,0,0-.71,0l-.37.34A10,10,0,1,1,12.3,2,10.18,10.18,0,0,1,22,12.27V13a2,2,0,0,1-2.2,2A2.06,2.06,0,0,1,18,12.91V8.5a.5.5,0,0,0-.5-.5h-1a.5.5,0,0,0-.45.29A5.5,5.5,0,1,0,16.58,15a4,4,0,0,0,3.69,2A4.09,4.09,0,0,0,24,12.86V12A12,12,0,0,0,10.63.08ZM12,15.5A3.5,3.5,0,1,1,15.5,12,3.5,3.5,0,0,1,12,15.5Z" style="fill:#303c42"/></g>
	<metadata>
		<rdf:RDF xmlns:rdf="http://www.w3.org/1999/02/22-rdf-syntax-ns#" xmlns:rdfs="http://www.w3.org/2000/01/rdf-schema#" xmlns:dc="http://purl.org/dc/elements/1.1/">
			<rdf:Description about="https://iconscout.com/legal#licenses" dc:title="at; mail; address; symbol; e-mail" dc:description="at; mail; address; symbol; e-mail" dc:publisher="Iconscout" dc:date="2017-02-21" dc:format="image/svg+xml" dc:language="en">
				<dc:creator>
					<rdf:Bag>
						<rdf:li>Alpár - Etele Méder</rdf:li>
					</rdf:Bag>
				</dc:creator>
			</rdf:Description>
		</rdf:RDF>
    </metadata></svg>
