<svg xmlns="http://www.w3.org/2000/svg" enable-background="new 0 0 32 32" viewBox="0 0 32 32"><path d="M26,4.46997h-1.48999V3.5c0-0.82001-0.66998-1.5-1.5-1.5s-1.5,0.67999-1.5,1.5v0.96997H17.5V3.5C17.5,2.67999,16.83002,2,16,2s-1.5,0.67999-1.5,1.5v0.96997h-4.01001V3.5c0-0.82001-0.66998-1.5-1.5-1.5s-1.5,0.67999-1.5,1.5v0.96997H6c-3.03003,0-5.5,2.46002-5.5,5.5V24.5C0.5,27.52997,2.96997,30,6,30h20c3.03003,0,5.5-2.47003,5.5-5.5V9.96997C31.5,6.92999,29.03003,4.46997,26,4.46997z M28.5,11.62h-25V9.96997c0-1.38,1.12-2.5,2.5-2.5h1.48999V8.38c0,0.82996,0.66998,1.5,1.5,1.5s1.5-0.67004,1.5-1.5V7.46997H14.5V8.38c0,0.82996,0.66998,1.5,1.5,1.5s1.5-0.67004,1.5-1.5V7.46997h4.01001V8.38c0,0.82996,0.66998,1.5,1.5,1.5s1.5-0.67004,1.5-1.5V7.46997H26c1.38,0,2.5,1.12,2.5,2.5V11.62z"/></svg>