<?xml version="1.0" encoding="utf-8"?>
<svg xmlns="http://www.w3.org/2000/svg" xmlns:xlink="http://www.w3.org/1999/xlink" version="1.1" id="Layer_1" x="0px" y="0px" viewBox="0 0 24 24" style="enable-background:new 0 0 24 24;" xml:space="preserve">
<style type="text/css">
	.st0{fill:none;stroke:#72b587;stroke-linecap:round;stroke-linejoin:round;}
</style>
<title>Attache</title>
<g id="Attache">
	<g id="_Group_">
		<path id="_Path_" class="st0" d="M19.5,7.5L9.3,17.7c-0.5,0.5-1.2,0.8-2,0.8l0,0c-1.6,0-2.8-1.3-2.8-2.8l0,0c0-0.8,0.3-1.5,0.8-2    L16.3,2.7c0.8-0.8,1.9-1.2,3-1.2l0,0c2.3,0,4.2,1.9,4.2,4.2l0,0c0,1.1-0.4,2.2-1.2,3L10.2,20.8c-1.1,1.1-2.5,1.7-4,1.7l0,0    c-3.1,0-5.7-2.5-5.7-5.7l0,0c0-1.5,0.6-2.9,1.7-4L13.5,1.5" style="fill: none; stroke: #fff; stroke-linecap: round; stroke-linejoin: round;"/>
	</g>
</g>

	<metadata>
		<rdf:RDF xmlns:rdf="http://www.w3.org/1999/02/22-rdf-syntax-ns#" xmlns:rdfs="http://www.w3.org/2000/01/rdf-schema#" xmlns:dc="http://purl.org/dc/elements/1.1/">
			<rdf:Description about="https://iconscout.com/legal#licenses" dc:title="attache; mail; office; paper-clip; attachment" dc:description="attache; mail; office; paper-clip; attachment" dc:publisher="Iconscout" dc:date="2017-02-16" dc:format="image/svg+xml" dc:language="en">
				<dc:creator>
					<rdf:Bag>
						<rdf:li>Alpár - Etele Méder</rdf:li>
					</rdf:Bag>
				</dc:creator>
			</rdf:Description>
		</rdf:RDF>
    </metadata></svg>
