<?xml version="1.0" encoding="UTF-8"?><svg xmlns="http://www.w3.org/2000/svg" xmlns:xlink="http://www.w3.org/1999/xlink" version="1.1" id="Layer_1" x="0px" y="0px" viewBox="0 0 24 24" xml:space="preserve"><path fill="#303C42" d="M12.95 12.244c.021-.08.05-.158.05-.244a.987.987 0 0 0-.5-.846V3.5a.5.5 0 1 0-1 0v7.654A.987.987 0 0 0 11 12c0 .551.448 1 1 1 .086 0 .164-.029.244-.05l3.902 3.904a.498.498 0 0 0 .708 0 .5.5 0 0 0 0-.708l-3.903-3.902z"/><path fill="#303C42" d="M22.639 6.46A11.964 11.964 0 0 0 12 0C5.383 0 0 5.383 0 12s5.383 12 12 12a.5.5 0 1 0 0-1C5.935 23 1 18.065 1 12S5.935 1 12 1c2.527 0 4.912.857 6.818 2.366l-1.19 1.943a.502.502 0 0 0 .296.743l4.14 1.122a.501.501 0 0 0 .575-.714z"/><path fill="#0288D1" d="M18.83 5.262l.753-1.23c.58.554 1.103 1.175 1.557 1.855l-2.31-.625z"/><path fill="#303C42" d="M15.812 22.321c-.895.331-1.833.544-2.788.631a.5.5 0 0 0 .092.996 11.93 11.93 0 0 0 3.044-.69.5.5 0 1 0-.348-.937z"/><path fill="#303C42" d="M21.026 18.288a11.04 11.04 0 0 1-1.926 2.114.5.5 0 1 0 .644.764 12.014 12.014 0 0 0 2.103-2.306.5.5 0 1 0-.82-.572z"/><path fill="#303C42" d="M23.5 11.5a.5.5 0 0 0-.5.5c0 .963-.124 1.918-.37 2.836a.5.5 0 1 0 .968.258A12.05 12.05 0 0 0 24 12a.5.5 0 0 0-.5-.5z"/><linearGradient id="SVGID_1_" gradientUnits="userSpaceOnUse" x1="1.125718" y1="6.9269814" x2="22.7232075" y2="16.9980564"><stop offset="0" stop-color="#FFF" stop-opacity="0.2"/><stop offset="1" stop-color="#FFF" stop-opacity="0"/></linearGradient><path fill="url(#SVGID_1_)" d="M12.95 12.244c.021-.08.05-.158.05-.244a.987.987 0 0 0-.5-.846V3.5a.5.5 0 1 0-1 0v7.654A.987.987 0 0 0 11 12c0 .551.448 1 1 1 .086 0 .164-.029.244-.05l3.902 3.904a.498.498 0 0 0 .708 0 .5.5 0 0 0 0-.708l-3.903-3.902zM22.64 6.46A11.964 11.964 0 0 0 12 0C5.383 0 0 5.383 0 12s5.383 12 12 12a.5.5 0 1 0 0-1C5.935 23 1 18.065 1 12S5.935 1 12 1c2.527 0 4.912.857 6.818 2.366l-1.19 1.943a.502.502 0 0 0 .296.743l4.14 1.122a.501.501 0 0 0 .575-.714zm-6.827 15.861c-.895.331-1.833.544-2.788.631a.5.5 0 0 0 .092.996 11.93 11.93 0 0 0 3.044-.69.5.5 0 1 0-.348-.937zm5.214-4.033a11.04 11.04 0 0 1-1.926 2.114.5.5 0 1 0 .644.764 12.014 12.014 0 0 0 2.103-2.306.5.5 0 1 0-.82-.572zM23.5 11.5a.5.5 0 0 0-.5.5c0 .963-.124 1.918-.37 2.836a.5.5 0 1 0 .968.258A12.05 12.05 0 0 0 24 12a.5.5 0 0 0-.5-.5z"/><metadata><rdf:RDF xmlns:rdf="http://www.w3.org/1999/02/22-rdf-syntax-ns#" xmlns:rdfs="http://www.w3.org/2000/01/rdf-schema#" xmlns:dc="http://purl.org/dc/elements/1.1/"><rdf:Description about="https://iconscout.com/legal#licenses" dc:title="time,clock,set,clockwise,turn" dc:description="time,clock,set,clockwise,turn" dc:publisher="Iconscout" dc:date="2017-08-16" dc:format="image/svg+xml" dc:language="en"><dc:creator><rdf:Bag><rdf:li>Those Icons</rdf:li></rdf:Bag></dc:creator></rdf:Description></rdf:RDF></metadata></svg>