<svg xmlns="http://www.w3.org/2000/svg" data-name="Layer 1" viewBox="0 0 64 64"><path fill="#3b3c3d" d="M27.37 47.84A2.4932 2.4932 0 0 1 28 49.5V50a3.006 3.006 0 0 1-1.24 2.43A2.5423 2.5423 0 0 1 27 53.5V54a3.006 3.006 0 0 1-1.24 2.43A2.5423 2.5423 0 0 1 26 57.5V58a3.0088 3.0088 0 0 1-3 3H15a6.0048 6.0048 0 0 1-6-6V47a3.9916 3.9916 0 0 1 3-3.87V36.5a3.5 3.5 0 0 1 7 0v1.9a13.8667 13.8667 0 0 1-.42 3.39L18.28 43H25a3.0005 3.0005 0 0 1 2.37 4.84zM27.001 33a1 1 0 0 1-.4483-1.8945L28.7637 30l-2.211-1.1055a1 1 0 1 1 .8946-1.789l2.2109 1.1054a2 2 0 0 1 0 3.5782l-2.2109 1.1054A.9945.9945 0 0 1 27.001 33zM34 42a7.0264 7.0264 0 0 1-6.0625-3.4985 1 1 0 0 1 1.73-1.002 5.0027 5.0027 0 0 0 8.664 0 1 1 0 0 1 1.73 1.002A7.0264 7.0264 0 0 1 34 42z"/><path fill="#3b3c3d" d="M49.55,15.92a9.0251,9.0251,0,0,0-8.1-8.27c-1.17-.12-2.34-.21-3.5-.26a3.9963,3.9963,0,0,0-7.9,0c-1.16.05-2.33.14-3.5.26a9.0275,9.0275,0,0,0-8.1,8.29l-.36,5.91A1.99,1.99,0,0,0,20,24v9.49a11.0511,11.0511,0,0,0,2.41,6.87,1,1,0,1,0,1.56-1.25A9.0266,9.0266,0,0,1,22,33.49V24h5.15a2.0038,2.0038,0,0,0,1.74-1H39.11a2.0038,2.0038,0,0,0,1.74,1H46v9.49a9.0266,9.0266,0,0,1-1.97,5.62l-3.81,4.77A5.6271,5.6271,0,0,1,35.8,46H31a1,1,0,0,0,0,2h4.8a7.6337,7.6337,0,0,0,5.98-2.87l3.81-4.77A11.0511,11.0511,0,0,0,48,33.49V24a1.9933,1.9933,0,0,0,1.39-.64,2.043,2.043,0,0,0,.53-1.5ZM33,16H31.54a3.9862,3.9862,0,0,0-3.94,3.34L27.15,22l-7.07-.02.36-5.9a7.0377,7.0377,0,0,1,6.32-6.44c2.1-.22,4.17-.34,6.24-.37Zm7.85,6-.45-2.66A3.9862,3.9862,0,0,0,36.46,16H35V9.27c2.07.03,4.14.15,6.24.37a7.0355,7.0355,0,0,1,6.32,6.42L47.92,22Z"/><path fill="#3b3c3d" d="M40.6943 30.4292a.9987.9987 0 0 1-.8662-.499 2.4247 2.4247 0 0 0-4.1992 0 1 1 0 1 1-1.73-1.002 4.424 4.424 0 0 1 7.66 0 1 1 0 0 1-.8643 1.501zM41.5 58a.9967.9967 0 0 1-.707-.293l-2.5-2.5a.9994.9994 0 0 1 0-1.414l2.5-2.5a.9994.9994 0 0 1 1.414 0l2.5 2.5a.9994.9994 0 0 1 0 1.414l-2.5 2.5A.9967.9967 0 0 1 41.5 58zm-1.0859-3.5L41.5 55.5859 42.5859 54.5 41.5 53.4141zM8 24a3 3 0 1 1 3-3A3.0033 3.0033 0 0 1 8 24zm0-4a1 1 0 1 0 1 1A1.0009 1.0009 0 0 0 8 20zM54 48a3 3 0 1 1 3-3A3.0033 3.0033 0 0 1 54 48zm0-4a1 1 0 1 0 1 1A1.0009 1.0009 0 0 0 54 44z"/><circle cx="13" cy="13" r="1" fill="#3b3c3d"/><circle cx="11" cy="28" r="1" fill="#3b3c3d"/><circle cx="51" cy="58" r="1" fill="#3b3c3d"/><circle cx="53" cy="36" r="1" fill="#3b3c3d"/><circle cx="32" cy="53" r="1" fill="#3b3c3d"/></svg>