<?xml version="1.0" encoding="UTF-8" standalone="no"?>
<svg xmlns:dc="http://purl.org/dc/elements/1.1/" xmlns:cc="http://creativecommons.org/ns#" xmlns:rdf="http://www.w3.org/1999/02/22-rdf-syntax-ns#" xmlns:svg="http://www.w3.org/2000/svg" xmlns="http://www.w3.org/2000/svg" xmlns:sodipodi="http://sodipodi.sourceforge.net/DTD/sodipodi-0.dtd" xmlns:inkscape="http://www.inkscape.org/namespaces/inkscape"  viewBox="0 0 16 16" id="svg6485" version="1.1" inkscape:version="0.91 r" sodipodi:docname="face-emotion (36th copy).svg">
  <defs id="defs6487">
    <inkscape:path-effect is_visible="true" id="path-effect5237" effect="spiro"/>
    <inkscape:path-effect is_visible="true" id="path-effect5178" effect="spiro"/>
    <inkscape:path-effect effect="spiro" id="path-effect5151" is_visible="true"/>
    <inkscape:path-effect effect="spiro" id="path-effect5147" is_visible="true"/>
    <inkscape:path-effect is_visible="true" id="path-effect5140" effect="spiro"/>
    <inkscape:path-effect is_visible="true" id="path-effect5081" effect="spiro"/>
    <inkscape:path-effect is_visible="true" id="path-effect4983" effect="spiro"/>
    <inkscape:path-effect effect="spiro" id="path-effect4979" is_visible="true"/>
    <inkscape:path-effect effect="spiro" id="path-effect4951" is_visible="true"/>
    <inkscape:path-effect is_visible="true" id="path-effect4947" effect="spiro"/>
    <inkscape:path-effect is_visible="true" id="path-effect4943" effect="spiro"/>
    <inkscape:path-effect effect="spiro" id="path-effect4939" is_visible="true"/>
    <inkscape:path-effect is_visible="true" id="path-effect4932" effect="spiro"/>
    <inkscape:path-effect is_visible="true" id="path-effect4903" effect="spiro"/>
    <inkscape:path-effect effect="spiro" id="path-effect4837" is_visible="true"/>
    <inkscape:path-effect is_visible="true" id="path-effect4833" effect="spiro"/>
    <inkscape:path-effect effect="spiro" id="path-effect4829" is_visible="true"/>
    <inkscape:path-effect is_visible="true" id="path-effect4823" effect="spiro"/>
    <inkscape:path-effect effect="spiro" id="path-effect4819" is_visible="true"/>
    <inkscape:path-effect is_visible="true" id="path-effect4812" effect="spiro"/>
    <inkscape:path-effect is_visible="true" id="path-effect4692" effect="spiro"/>
    <inkscape:path-effect is_visible="true" id="path-effect4670" effect="spiro"/>
    <inkscape:path-effect effect="spiro" id="path-effect4667" is_visible="true"/>
    <inkscape:path-effect effect="spiro" id="path-effect4638" is_visible="true"/>
    <inkscape:path-effect is_visible="true" id="path-effect4634" effect="spiro"/>
    <inkscape:path-effect is_visible="true" id="path-effect4614" effect="spiro"/>
    <inkscape:path-effect effect="spiro" id="path-effect4610" is_visible="true"/>
    <inkscape:path-effect effect="spiro" id="path-effect6516" is_visible="true"/>
    <inkscape:path-effect is_visible="true" id="path-effect6512" effect="spiro"/>
    <inkscape:path-effect effect="spiro" id="path-effect6508" is_visible="true"/>
    <inkscape:path-effect is_visible="true" id="path-effect6460" effect="spiro"/>
    <inkscape:path-effect effect="spiro" id="path-effect6456" is_visible="true"/>
    <inkscape:path-effect is_visible="true" id="path-effect6424" effect="spiro"/>
    <inkscape:path-effect effect="spiro" id="path-effect6420" is_visible="true"/>
    <inkscape:path-effect effect="spiro" id="path-effect4153" is_visible="true"/>
    <inkscape:path-effect is_visible="true" id="path-effect4239" effect="spiro"/>
    <inkscape:path-effect effect="spiro" id="path-effect4223" is_visible="true"/>
    <inkscape:path-effect is_visible="true" id="path-effect4217" effect="spiro"/>
    <inkscape:path-effect effect="spiro" id="path-effect4213" is_visible="true"/>
    <inkscape:path-effect effect="spiro" id="path-effect5296" is_visible="true"/>
    <inkscape:path-effect effect="spiro" id="path-effect7060" is_visible="true"/>
    <inkscape:path-effect is_visible="true" id="path-effect4903-3" effect="spiro"/>
  </defs>
  <sodipodi:namedview id="base" pagecolor="#ffffff" bordercolor="#666666" borderopacity="1.0" inkscape:pageopacity="1" inkscape:pageshadow="2" inkscape:zoom="18.96875" inkscape:cx="-0.34748047" inkscape:cy="7.9862099" inkscape:document-units="px" inkscape:current-layer="layer1" showgrid="false" units="px" inkscape:window-width="1309" inkscape:window-height="744" inkscape:window-x="57" inkscape:window-y="24" inkscape:window-maximized="1" inkscape:snap-global="true" showguides="false" inkscape:guide-bbox="true" inkscape:snap-bbox="true" inkscape:bbox-nodes="true" inkscape:snap-bbox-edge-midpoints="true" inkscape:showpageshadow="true">
    <inkscape:grid type="xygrid" id="grid4145" empspacing="4"/>
    <inkscape:grid type="xygrid" id="grid4225"/>
  </sodipodi:namedview>
  
  <g inkscape:label="Layer 1" inkscape:groupmode="layer" id="layer1" transform="translate(0,-1036.3622)">
    <path style="color:#000000;font-style:normal;font-variant:normal;font-weight:normal;font-stretch:normal;font-size:medium;line-height:normal;font-family:sans-serif;text-indent:0;text-align:start;text-decoration:none;text-decoration-line:none;text-decoration-style:solid;text-decoration-color:#000000;letter-spacing:normal;word-spacing:normal;text-transform:none;direction:ltr;block-progression:tb;writing-mode:lr-tb;baseline-shift:baseline;text-anchor:start;white-space:normal;clip-rule:nonzero;display:inline;overflow:visible;visibility:visible;opacity:1;isolation:auto;mix-blend-mode:normal;color-interpolation:sRGB;color-interpolation-filters:linearRGB;solid-color:#000000;solid-opacity:1;fill:#000000;fill-opacity:1;fill-rule:nonzero;stroke:none;stroke-width:0.99999994;stroke-linecap:round;stroke-linejoin:round;stroke-miterlimit:4;stroke-dasharray:none;stroke-dashoffset:0;stroke-opacity:1;color-rendering:auto;image-rendering:auto;shape-rendering:auto;text-rendering:auto;enable-background:accumulate" d="M 8 0 C 3.5876443 0 0 3.5877 0 8 C 0 12.4124 3.5876443 16 8 16 C 12.412356 16 16 12.4124 16 8 C 16 3.5877 12.412356 0 8 0 z M 8 1 C 11.871916 1 15 4.1281 15 8 C 15 11.8719 11.871916 15 8 15 C 4.1280844 15 1 11.8719 1 8 C 1 4.1281 4.1280844 1 8 1 z M 5 5.4941406 C 4.654527 5.4941406 4.309054 5.5833187 4 5.7617188 C 3.381892 6.1186187 3 6.7803406 3 7.4941406 A 0.50005 0.50005 0 0 0 3.4921875 8 A 0.50005 0.50005 0 0 0 4 7.4941406 C 4 7.1360406 4.1899047 6.8059531 4.5 6.6269531 C 4.8100953 6.4478531 5.1899047 6.4478531 5.5 6.6269531 C 5.8100953 6.8059531 6 7.1360406 6 7.4941406 A 0.50005 0.50005 0 1 0 7 7.4941406 C 7 6.7803406 6.618108 6.1186187 6 5.7617188 C 5.690946 5.5833187 5.345473 5.4941406 5 5.4941406 z M 11 5.4941406 C 10.654527 5.4941406 10.309054 5.5833187 10 5.7617188 C 9.381892 6.1186187 9 6.7803406 9 7.4941406 A 0.50005 0.50005 0 0 0 9.4921875 8 A 0.50005 0.50005 0 0 0 10 7.4941406 C 10 7.1360406 10.189905 6.8059531 10.5 6.6269531 C 10.810095 6.4478531 11.189905 6.4478531 11.5 6.6269531 C 11.810095 6.8059531 12 7.1360406 12 7.4941406 A 0.50005 0.50005 0 1 0 13 7.4941406 C 13 6.7803406 12.618108 6.1186187 12 5.7617188 C 11.690946 5.5833187 11.345473 5.4941406 11 5.4941406 z M 11.878906 9.78125 A 0.50004994 0.50004994 0 0 0 11.435547 10.035156 C 10.708396 11.266356 9.3829193 12.012247 7.953125 11.998047 A 0.50052746 0.50052746 0 0 0 7.9433594 13 C 9.7288008 13.018 11.388848 12.080369 12.296875 10.542969 A 0.50004994 0.50004994 0 0 0 12.117188 9.8476562 A 0.50004994 0.50004994 0 0 0 11.878906 9.78125 z " transform="translate(0,1036.3622)" id="circle5805"/>
  </g>

	<metadata>
		<rdf:RDF xmlns:rdf="http://www.w3.org/1999/02/22-rdf-syntax-ns#" xmlns:rdfs="http://www.w3.org/2000/01/rdf-schema#" xmlns:dc="http://purl.org/dc/elements/1.1/">
			<rdf:Description about="https://iconscout.com/legal#licenses" dc:title="happy-smile-emoji-face-emotion" dc:description="happy-smile-emoji-face-emotion" dc:publisher="Iconscout" dc:date="2017-03-04" dc:format="image/svg+xml" dc:language="en">
				<dc:creator>
					<rdf:Bag>
						<rdf:li>Devendra Karkar</rdf:li>
					</rdf:Bag>
				</dc:creator>
			</rdf:Description>
		</rdf:RDF>
    </metadata></svg>
