<svg xmlns="http://www.w3.org/2000/svg" enable-background="new 0 0 32 32" viewBox="0 0 32 32"><path d="M30.85999,10.54999l-14-9.78003c-0.51996-0.35999-1.20001-0.35999-1.71997,0l-14,9.78003c-0.54004,0.37-0.77002,1.04999-0.57001,1.67999c0.20001,0.62,0.77002,1.04999,1.42999,1.04999h0.84003l2.81995,14.57001C6.06,29.96997,7.91998,31.5,10.07001,31.5h11.85999c2.15002,0,4.01001-1.53003,4.41003-3.65002l2.81995-14.57001H30c0.65997,0,1.22998-0.42999,1.42999-1.04999C31.63,11.59998,31.40002,10.91998,30.85999,10.54999z M18.28998,25.35999h-4.57996c-0.82001,0-1.5-0.66998-1.5-1.5s0.67999-1.5,1.5-1.5h4.57996c0.82001,0,1.5,0.66998,1.5,1.5S19.10999,25.35999,18.28998,25.35999z M16,21.64001c-2.76001,0-5-2.24005-5-5c0-2.76001,2.23999-5,5-5s5,2.23999,5,5C21,19.39996,18.76001,21.64001,16,21.64001z"/><circle cx="16" cy="16.64" r="2"/></svg>