<?xml version="1.0" encoding="UTF-8"?><!DOCTYPE svg PUBLIC "-//W3C//DTD SVG 1.1//EN" "http://www.w3.org/Graphics/SVG/1.1/DTD/svg11.dtd"><svg xmlns="http://www.w3.org/2000/svg" xmlns:xlink="http://www.w3.org/1999/xlink" version="1.1" id="Layer_1" x="0px" y="0px" viewBox="0 0 48 48" xml:space="preserve" fill="#000"><path d="M42 42h-3v3c0 1.659-1.341 3-3 3s-3-1.341-3-3v-3h-3c-1.659 0-3-1.341-3-3s1.341-3 3-3h3v-3c0-1.659 1.341-3 3-3s3 1.341 3 3v3h3c1.659 0 3 1.341 3 3s-1.341 3-3 3zM27.423 30.423C23.715 31.536 21 34.935 21 39c0 3.915 2.511 7.209 6 8.448V48H6a3 3 0 0 1-3-3c0-6 5.799-11.598 11.727-13.812C11.304 29.073 9 25.317 9 21v-3c0-6.627 5.373-12 12-12s12 5.373 12 12v3c0 1.398-.312 2.697-.756 3.939-2.283 1.086-4.083 3.021-4.821 5.484z"/><metadata><rdf:RDF xmlns:rdf="http://www.w3.org/1999/02/22-rdf-syntax-ns#" xmlns:rdfs="http://www.w3.org/2000/01/rdf-schema#" xmlns:dc="http://purl.org/dc/elements/1.1/"><rdf:Description about="https://iconscout.com/legal#licenses" dc:title="user,add" dc:description="user,add" dc:publisher="Iconscout" dc:date="2017-09-24" dc:format="image/svg+xml" dc:language="en"><dc:creator><rdf:Bag><rdf:li>Adam</rdf:li></rdf:Bag></dc:creator></rdf:Description></rdf:RDF></metadata></svg>