<svg xmlns="http://www.w3.org/2000/svg" width="32" height="32" viewBox="0 0 32 32"><g transform="translate(575 -1669.82)"><path style="isolation:auto;mix-blend-mode:normal" fill="#f8d459" d="M-548.47379 1674.5082c-.78093.021-1.56849.2347-2.29516.6576l-5.81069 3.382c-1.73766 1.0113-2.61867 2.9291-2.39272 4.8119l2.34466-1.3652c.19706-.6175.61261-1.1727 1.22331-1.5281l5.6971-3.3145c1.28343-.7469 2.899-.3329 3.62185.9292.72289 1.262.2713 2.8788-1.01214 3.6257l-5.6971 3.316c-.61044.3552-1.29346.4403-1.92233.3038l-2.34759 1.3652c1.50468 1.1389 3.59371 1.3284 5.33157.3171l5.8107-3.3821c2.32531-1.3532 3.1163-4.3293 1.77379-6.6731-.92298-1.6114-2.60722-2.4923-4.32525-2.4455zM-563.97044 1683.527c-.78092.021-1.56995.2347-2.2966.6576l-5.8107 3.3821c-2.32531 1.3532-3.1163 4.3292-1.77379 6.6731 1.34251 2.3438 4.2951 3.1411 6.62041 1.7879l5.81069-3.3821c1.73766-1.0112 2.61867-2.929 2.39272-4.8118l-2.34321 1.3637c-.19688.6181-.61364 1.1725-1.22476 1.5281l-5.69564 3.316c-1.28344.7469-2.89897.3314-3.62186-.9306-.72285-1.262-.27129-2.8789 1.01214-3.6258l5.69565-3.3145c.61094-.3555 1.29594-.4409 1.92525-.3039l2.34467-1.3651c-.87553-.6627-1.94825-1.0043-3.03497-.9747z" color="#000" overflow="visible"/><path style="isolation:auto;mix-blend-mode:normal" fill="#f8d459" d="m -553.9718,1684.8922 -8.08287,4.7038 c -0.96272,0.5603 -2.16334,0.2683 -2.69192,-0.6545 -0.52854,-0.9228 -0.17907,-2.1168 0.78366,-2.677 l 8.08287,-4.7039 c 0.96273,-0.5602 2.16334,-0.2683 2.69188,0.6545 0.52858,0.9228 0.17911,2.1168 -0.78362,2.6771 z" color="#000" overflow="visible"/><path style="isolation:auto;mix-blend-mode:normal" fill="#01d1ff" d="m -559.00004,1675.8263 c -5.17673,0.01 -9.43494,4.1117 -9.67138,9.3242 l 2.21797,-1.2903 c 0.78077,-0.4544 1.63121,-0.685 2.47282,-0.7075 l 0,0 c 1.08785,-0.03 2.16062,0.2895 3.06409,0.9071 l 1.56262,-0.9086 c -0.1377,-1.9448 0.79895,-3.8852 2.58787,-4.9263 l 2.22234,-1.2932 c -1.37638,-0.7222 -2.90464,-1.1007 -4.45633,-1.1039 z m 7.0442,3.068 -3.26214,1.898 c -0.11048,0.064 -0.20913,0.1392 -0.30438,0.2172 0.4132,-0.1211 0.84224,-0.1358 1.24224,-0.038 0.58013,0.1418 1.09866,0.5037 1.41554,1.0569 0.53474,0.9336 0.30767,2.0899 -0.45146,2.8243 0.11329,-0.044 0.22566,-0.091 0.33496,-0.1541 l 3.26068,-1.898 c -0.43278,-1.46 -1.19832,-2.7976 -2.23544,-3.9061 z m 2.62719,7.1502 -2.21797,1.2902 c -1.78814,1.0407 -3.92459,0.8888 -5.52671,-0.2025 l -1.57282,0.9145 c 0.13692,1.9442 -0.79954,3.8841 -2.58787,4.9248 l -2.22088,1.2932 c 1.37606,0.7215 2.90379,1.0995 4.45486,1.1024 5.1762,-0.01 9.43421,-4.1107 9.67139,-9.3226 z m -15.3015,0.273 c -0.13176,0.047 -0.26241,0.1055 -0.38884,0.1791 l -3.26068,1.8965 c 0.43257,1.4604 1.19811,2.7986 2.23544,3.9076 l 3.26214,-1.8995 c 0.12492,-0.073 0.2382,-0.1566 0.34369,-0.2466 -1.00493,0.2837 -2.10051,-0.098 -2.63155,-1.0246 -0.53175,-0.9284 -0.30912,-2.0775 0.4398,-2.8125 z" color="#000" overflow="visible"/><path style="isolation:auto;mix-blend-mode:normal" fill="#00a5ff" d="m -559,655.46484 c -5.17673,0.01 -9.43543,4.11172 -9.67188,9.32422 l 1.0586,-0.61523 c 0.51026,-4.73146 4.34253,-8.40447 9.0625,-8.68164 -0.14989,-0.007 -0.29878,-0.027 -0.44922,-0.0274 z m 7.04492,3.06641 -3.26367,1.89844 c -0.11048,0.064 -0.20748,0.13879 -0.30273,0.21679 0.3576,-0.1048 0.72393,-0.11322 1.07617,-0.0547 0.073,-0.057 0.14574,-0.11416 0.22851,-0.16211 l 2.58594,-1.50586 c -0.10926,-0.12976 -0.20805,-0.26647 -0.32422,-0.39063 l 0,-0.002 z m -1.9414,2.01563 c -0.12995,0.004 -0.2588,0.0374 -0.38868,0.0625 0.002,4.5e-4 0.004,-4.6e-4 0.006,0 0.58013,0.1418 1.09719,0.50344 1.41407,1.05664 0.53474,0.9336 0.30795,2.08981 -0.45118,2.82421 0.11329,-0.044 0.22664,-0.0912 0.33594,-0.15429 l 1.24219,-0.72461 c 0.24212,-0.62338 0.22675,-1.33119 -0.125,-1.94531 -0.31688,-0.5532 -0.83589,-0.91484 -1.41602,-1.05664 -0.2,-0.0489 -0.40827,-0.0691 -0.61718,-0.0625 z m -9.08399,2.24414 c -0.12309,0.003 -0.24591,0.019 -0.36914,0.0312 0.86676,0.0838 1.70591,0.37756 2.43359,0.875 l 0.49805,-0.28907 c -0.78848,-0.41951 -1.66783,-0.64186 -2.5625,-0.61718 z m 13.65235,2.89062 -2.21876,1.29102 c -0.65233,0.37966 -1.35054,0.59736 -2.05273,0.67187 1.02744,0.092 2.08947,-0.11125 3.05273,-0.67187 l 1.16016,-0.67578 c 0.022,-0.204 0.0491,-0.40753 0.0586,-0.61524 z m -15.30274,0.27344 c -0.13176,0.047 -0.26224,0.10609 -0.38867,0.17969 l -3.25977,1.89648 c 0.43257,1.4604 1.19705,2.7992 2.23438,3.9082 l 0.67578,-0.39257 c -0.86591,-1.02893 -1.52618,-2.21929 -1.91016,-3.51563 l 2.08594,-1.21289 c 0.12411,-0.31775 0.30991,-0.61539 0.5625,-0.86328 z m 7.55664,0.81445 -1.57226,0.91406 c 0.13692,1.9442 -0.79956,3.88508 -2.5879,4.92579 l -2.2207,1.29296 c 1.37606,0.7215 2.90401,1.10062 4.45508,1.10352 0.18252,-3.5e-4 0.36091,-0.0189 0.54102,-0.0293 -1.39182,-0.0694 -2.75661,-0.42432 -3.9961,-1.07422 l 2.2207,-1.29296 c 1.78833,-1.04071 2.72482,-2.98159 2.5879,-4.92579 l 1.07226,-0.62304 c -0.16983,-0.09 -0.33995,-0.182 -0.5,-0.29102 z m -5.36328,3.02344 c -0.0573,0.0162 -0.11607,0.0213 -0.17383,0.0332 0.0338,0.007 0.0674,0.0136 0.10156,0.0195 0.0231,-0.0184 0.0499,-0.0337 0.0723,-0.0527 z" color="#000" overflow="visible" transform="translate(0 1020.362)"/><path fill="none" stroke="#000" stroke-width="1.336" d="M240.00002 1386.3622l0-3M240.00002 1417.3622l0-3" transform="matrix(.74563 0 0 .75157 -737.952 633.128)"/><path fill="none" stroke="#000" stroke-width="1.336" d="M240.00002 1386.3622l0-3M240.00002 1417.3622l0-3" transform="matrix(-.19298 .72596 -.72023 -.19452 495.894 1783.765)"/><path fill="none" stroke="#000" stroke-width="1.336" d="M240.00002 1386.3622l0-3M240.00002 1417.3622l0-3" transform="matrix(-.67634 .3164 -.3139 -.68172 42.905 2564.314)"/><path fill="none" stroke="#000" stroke-width="1.336" d="M240.00002 1386.3622l0-3M240.00002 1417.3622l0-3" transform="matrix(-.51168 .54668 -.54236 -.51575 323.3 2276.636)"/><path style="isolation:auto;mix-blend-mode:normal" fill="#fff" d="M-548.47461 654.14648c-.78093.021-1.56825.23335-2.29492.65625l-5.81055 3.38282c-1.73766 1.0113-2.61853 2.9297-2.39258 4.8125L-558 662.43164c-.006-1.69206.85628-3.33607 2.41992-4.24609l5.81055-3.38282c.62191-.36193 1.2902-.56113 1.95898-.62695-.2194-.0245-.44196-.0353-.66406-.0293zm1.28711 2.2754c-.21737-.0127-.43738.0109-.65625.0527.7172.13815 1.36789.56333 1.75781 1.24414.72289 1.262.27172 2.8781-1.01172 3.625l-5.69726 3.31641c-.27566.16039-.56579.25779-.85938.3125.6117.11807 1.26879.0312 1.85938-.3125l5.69726-3.31641c1.28344-.7469 1.73461-2.363 1.01172-3.625-.45178-.78881-1.25138-1.24701-2.10156-1.29687zm-7.5293 8.54296l-2.34765 1.36524c.9756.73844 2.19628 1.06974 3.4082.9414-.8665-.0904-1.70232-.40712-2.4082-.9414l2.29101-1.33203c-.3173.0442-.63711.0333-.94336-.0332zM-563.9707 663.16406c-.78092.021-1.57023.23531-2.29688.65821l-5.81054 3.38281c-2.32531 1.3532-3.11595 4.32797-1.77344 6.67187.99357 1.73461 2.86836 2.61645 4.71875 2.41211-1.49842-.14991-2.90509-.99159-3.71875-2.41211-1.34251-2.3439-.55187-5.31867 1.77344-6.67187l5.81054-3.38281c.60554-.35242 1.25486-.55164 1.90625-.62305-.20204-.0203-.40512-.0407-.60937-.0352zm.74804 2.30664c-.0407.006-.0804.0178-.12109.0254.0212.004.0434.003.0644.008l.0566-.0332zm4.19532 2l-2.34375 1.36524c-.19688.6181-.61349 1.17174-1.22461 1.52734l-5.69532 3.31641c-.2749.15998-.56603.25607-.85937.3125.61132.11718 1.26944.0308 1.85937-.3125l5.69532-3.31641c.61112-.3556 1.02773-.90924 1.22461-1.52734L-559 668.03711c-.00068-.18831-.005-.37786-.0273-.56641z" color="#000" overflow="visible" transform="translate(0 1020.362)"/><path style="isolation:auto;mix-blend-mode:normal" fill="#fff" d="m -554.74414,660.91602 c -0.37994,-0.0179 -0.7757,0.0731 -1.13672,0.2832 l -8.08203,4.70312 c -0.96273,0.5602 -1.31174,1.75494 -0.7832,2.67774 0.43066,0.75186 1.30595,1.07458 2.13671,0.86914 -0.47011,-0.12499 -0.88754,-0.4205 -1.14453,-0.86914 -0.52854,-0.9228 -0.17952,-2.11754 0.78321,-2.67774 l 8.08398,-4.70312 c 0.17863,-0.10395 0.36549,-0.17011 0.55469,-0.2168 -0.13423,-0.0357 -0.27146,-0.0598 -0.41211,-0.0664 z" color="#000" overflow="visible" transform="translate(0 1020.362)"/><path style="isolation:auto;mix-blend-mode:normal" fill="none" stroke="#000" stroke-dashoffset=".6" stroke-linecap="round" stroke-linejoin="round" d="m -572.07774,1687.5667 c -2.32531,1.3532 -3.1163,4.3292 -1.77379,6.6731 1.34251,2.3438 4.2951,3.1411 6.62041,1.7879 l 5.81069,-3.3821 c 1.73766,-1.0112 2.61867,-2.929 2.39272,-4.8118 l -2.34321,1.3637 c -0.19688,0.6181 -0.61364,1.1725 -1.22476,1.5281 l -5.69564,3.316 c -1.28344,0.7469 -2.89897,0.3314 -3.62186,-0.9306 -0.72285,-1.262 -0.27129,-2.8789 1.01214,-3.6258 l 5.69565,-3.3145 c 0.61094,-0.3555 1.29594,-0.4409 1.92525,-0.3039 l 2.34467,-1.3651 c -0.87553,-0.6627 -1.94825,-1.0043 -3.03497,-0.9747 -0.78092,0.021 -1.56995,0.2347 -2.2966,0.6576 l -3.81611,2.2212" color="#000" overflow="visible"/><path style="isolation:auto;mix-blend-mode:normal" fill="none" stroke="#000" stroke-dashoffset=".6" stroke-linecap="round" stroke-linejoin="round" d="m -553.9718,1684.8922 -8.08287,4.7038 c -0.96272,0.5603 -2.16334,0.2683 -2.69192,-0.6545 -0.52854,-0.9228 -0.17907,-2.1168 0.78366,-2.677 l 8.08287,-4.7039 c 0.96273,-0.5602 2.16334,-0.2683 2.69188,0.6545 0.52858,0.9228 0.17911,2.1168 -0.78362,2.6771 z" color="#000" overflow="visible"/><path style="isolation:auto;mix-blend-mode:normal" fill="none" stroke="#000" stroke-dashoffset=".6" stroke-linecap="round" stroke-linejoin="round" d="m -548.47379,1674.5082 c -0.78093,0.021 -1.56849,0.2347 -2.29516,0.6576 l -5.81069,3.382 c -1.73766,1.0113 -2.61867,2.9291 -2.39272,4.8119 l 2.34466,-1.3652 c 0.19706,-0.6175 0.61261,-1.1727 1.22331,-1.5281 l 5.6971,-3.3145 c 1.28343,-0.7469 2.899,-0.3329 3.62185,0.9292 0.72289,1.262 0.2713,2.8788 -1.01214,3.6257 l -5.6971,3.316 c -0.61044,0.3552 -1.29346,0.4403 -1.92233,0.3038 l -2.34759,1.3652 c 1.50468,1.1389 3.59371,1.3284 5.33157,0.3171 l 5.8107,-3.3821 c 2.32531,-1.3532 3.1163,-4.3293 1.77379,-6.6731 -0.92298,-1.6114 -2.60722,-2.4923 -4.32525,-2.4455 z" color="#000" overflow="visible"/></g></svg>