<svg xmlns="http://www.w3.org/2000/svg" viewBox="0 0 24 24"><path fill="#F47920" d="M12 0C6.78 0 2.35 3.34.7 7.994l5.908-2.003-1.364-1.364A9.96 9.96 0 0112 2c5.514 0 10 4.486 10 10s-4.486 10-10 10S2 17.514 2 12H0c0 6.627 5.373 12 12 12s12-5.373 12-12S18.627 0 12 0zm.005 4l-.5 1v7.218l4.434 4.434 1.061.353-.354-1.06-4.14-4.142V5l-.5-1z"/><path opacity=".1" fill="#FFF" d="M0 12h2c0 5.514 4.486 10 10 10s10-4.486 10-10S17.514 2 12 2a9.96 9.96 0 00-6.756 2.627l1.364 1.364L.7 7.994C2.35 3.34 6.78 0 12 0c6.627 0 12 5.373 12 12s-5.373 12-12 12S0 18.627 0 12z"/></svg>