<svg xmlns="http://www.w3.org/2000/svg" data-name="Layer 1" viewBox="0 0 29 29"><path d="M6.88373,10.90109l.74933-.51654.74933.51654a.12573.12573,0,0,0,.19384-.13373l-.23736-.91077.72033-.65875a.12471.12471,0,0,0-.08557-.21662l-.95245.00129-.26825-.90345a.12624.12624,0,0,0-.24146-.00048L7.239,8.98251l-.94647-.00129a.12471.12471,0,0,0-.08557.21662l.72034.65875-.23737.91077A.12574.12574,0,0,0,6.88373,10.90109Zm5.9-3.06537L12.42322,9.219a.19092.19092,0,0,0,.29437.20306l1.13806-.78448,1.13806.78448a.19093.19093,0,0,0,.29438-.20306l-.36048-1.38324,1.094-1.00049a.18938.18938,0,0,0-.12995-.329l-1.44653.002-.40741-1.37213a.19172.19172,0,0,0-.3667-.00079L13.25714,6.5082l-1.4375-.002a.18939.18939,0,0,0-.12994.329Zm-4.01489,7.778-.288-.97015A.13556.13556,0,0,0,8.2215,14.643l-.29267.9707-1.01635-.00134a.13387.13387,0,0,0-.09186.23254l.7735.7074-.25489.978a.135.135,0,0,0,.20813.14361l.80469-.55469.80463.55469a.135.135,0,0,0,.20813-.14361l-.25489-.978.7735-.7074a.13386.13386,0,0,0-.09186-.23254Zm15.656,6.98761L12.40381,10.5798a.4998.4998,0,0,0-.707,0L9.5752,12.70089a.4998.4998,0,0,0,0,.707l12.021,12.02149a.49983.49983,0,0,0,.707,0l2.12158-2.1211a.4998.4998,0,0,0,0-.707Zm-2.47509,1.76758-9.19232-9.19275,1.4143-1.41425,9.19257,9.19294Z"/></svg>