<svg xmlns="http://www.w3.org/2000/svg" viewBox="0 0 64 64"><g data-name="Delete"><path fill="#222" d="M32,60.94A28.9,28.9,0,0,1,7.88,48a2,2,0,1,1,3.33-2.22A24.78,24.78,0,1,0,7.9,38.45a2,2,0,0,1-3.87,1,29.29,29.29,0,0,1-1-7.48A28.94,28.94,0,1,1,32,60.94Z"/><path fill="#222" d="M40.73 42.73a2 2 0 0 1-1.42-.59L21.86 24.69a2 2 0 1 1 2.83-2.83L42.14 39.31a2 2 0 0 1-1.41 3.42zM23.27 42.73a2 2 0 0 1-1.41-3.42l3.87-3.87a2 2 0 0 1 2.83 2.83l-3.87 3.87A2 2 0 0 1 23.27 42.73z"/><path fill="#222" d="M32,34a2,2,0,0,1-1.41-3.41l8.72-8.73a2,2,0,1,1,2.83,2.83l-8.73,8.72A2,2,0,0,1,32,34Z"/></g></svg>