<?xml version="1.0" encoding="UTF-8" standalone="no"?>
<svg xmlns:dc="http://purl.org/dc/elements/1.1/" xmlns:cc="http://creativecommons.org/ns#" xmlns:rdf="http://www.w3.org/1999/02/22-rdf-syntax-ns#" xmlns:svg="http://www.w3.org/2000/svg" xmlns="http://www.w3.org/2000/svg" xmlns:sodipodi="http://sodipodi.sourceforge.net/DTD/sodipodi-0.dtd" xmlns:inkscape="http://www.inkscape.org/namespaces/inkscape" sodipodi:docname="1 (15th copy).svg" inkscape:version="0.91 r" version="1.1" id="svg6485" viewBox="0 0 32 32">
  <sodipodi:namedview inkscape:snap-bbox-edge-midpoints="true" inkscape:bbox-nodes="true" inkscape:snap-bbox="true" inkscape:guide-bbox="true" showguides="false" inkscape:snap-global="true" inkscape:window-maximized="1" inkscape:window-y="24" inkscape:window-x="57" inkscape:window-height="744" inkscape:window-width="1309" units="px" showgrid="true" inkscape:current-layer="layer1" inkscape:document-units="px" inkscape:cy="16" inkscape:cx="16" inkscape:zoom="18.96875" inkscape:pageshadow="2" inkscape:pageopacity="0.0" borderopacity="1.0" bordercolor="#666666" pagecolor="#ffffff" id="base" inkscape:lockguides="false" inkscape:showpageshadow="false">
    <inkscape:grid empspacing="4" id="grid4145" type="xygrid"/>
  </sodipodi:namedview>
  <defs id="defs6487">
    <inkscape:path-effect effect="spiro" id="path-effect5218" is_visible="true"/>
    <inkscape:path-effect effect="spiro" id="path-effect5214" is_visible="true"/>
    <inkscape:path-effect effect="spiro" id="path-effect5206" is_visible="true"/>
    <inkscape:path-effect effect="spiro" id="path-effect5190" is_visible="true"/>
    <inkscape:path-effect effect="spiro" id="path-effect5191" is_visible="true"/>
    <inkscape:path-effect effect="spiro" id="path-effect5187" is_visible="true"/>
    <inkscape:path-effect is_visible="true" id="path-effect7721" effect="spiro"/>
    <inkscape:path-effect is_visible="true" id="path-effect7716" effect="spiro"/>
    <inkscape:path-effect effect="spiro" id="path-effect7712" is_visible="true"/>
    <inkscape:path-effect is_visible="true" id="path-effect7708" effect="spiro"/>
    <inkscape:path-effect is_visible="true" id="path-effect7704" effect="spiro"/>
    <inkscape:path-effect is_visible="true" id="path-effect7605" effect="spiro"/>
    <inkscape:path-effect effect="spiro" id="path-effect7601" is_visible="true"/>
    <inkscape:path-effect effect="spiro" id="path-effect7597" is_visible="true"/>
    <inkscape:path-effect is_visible="true" id="path-effect7593" effect="spiro"/>
    <inkscape:path-effect is_visible="true" id="path-effect7589" effect="spiro"/>
    <inkscape:path-effect effect="spiro" id="path-effect7585" is_visible="true"/>
    <inkscape:path-effect is_visible="true" id="path-effect7581" effect="spiro"/>
    <inkscape:path-effect effect="spiro" id="path-effect7577" is_visible="true"/>
    <inkscape:path-effect effect="spiro" id="path-effect7573" is_visible="true"/>
    <inkscape:path-effect is_visible="true" id="path-effect7569" effect="spiro"/>
    <inkscape:path-effect is_visible="true" id="path-effect7565" effect="spiro"/>
    <inkscape:path-effect effect="spiro" id="path-effect7561" is_visible="true"/>
    <inkscape:path-effect effect="spiro" id="path-effect7557" is_visible="true"/>
    <inkscape:path-effect is_visible="true" id="path-effect7553" effect="spiro"/>
    <inkscape:path-effect is_visible="true" id="path-effect7545" effect="spiro"/>
    <inkscape:path-effect effect="spiro" id="path-effect7541" is_visible="true"/>
    <inkscape:path-effect effect="spiro" id="path-effect7537" is_visible="true"/>
    <inkscape:path-effect is_visible="true" id="path-effect7533" effect="spiro"/>
    <inkscape:path-effect effect="spiro" id="path-effect7529" is_visible="true"/>
    <inkscape:path-effect effect="spiro" id="path-effect7525" is_visible="true"/>
    <inkscape:path-effect is_visible="true" id="path-effect7521" effect="spiro"/>
    <inkscape:path-effect effect="spiro" id="path-effect7403" is_visible="true"/>
    <inkscape:path-effect is_visible="true" id="path-effect7399" effect="spiro"/>
    <inkscape:path-effect effect="spiro" id="path-effect7395" is_visible="true"/>
    <inkscape:path-effect is_visible="true" id="path-effect7391" effect="spiro"/>
    <inkscape:path-effect effect="spiro" id="path-effect7387" is_visible="true"/>
    <inkscape:path-effect is_visible="true" id="path-effect7383" effect="spiro"/>
    <inkscape:path-effect effect="spiro" id="path-effect7379" is_visible="true"/>
    <inkscape:path-effect is_visible="true" id="path-effect7375" effect="spiro"/>
    <inkscape:path-effect effect="spiro" id="path-effect7335" is_visible="true"/>
    <inkscape:path-effect is_visible="true" id="path-effect7331" effect="spiro"/>
    <inkscape:path-effect effect="spiro" id="path-effect7326" is_visible="true"/>
    <inkscape:path-effect is_visible="true" id="path-effect7322" effect="spiro"/>
    <inkscape:path-effect effect="spiro" id="path-effect7318" is_visible="true"/>
    <inkscape:path-effect is_visible="true" id="path-effect7314" effect="spiro"/>
    <inkscape:path-effect is_visible="true" id="path-effect7290" effect="spiro"/>
    <inkscape:path-effect effect="spiro" id="path-effect7286" is_visible="true"/>
    <inkscape:path-effect is_visible="true" id="path-effect7282" effect="spiro"/>
    <inkscape:path-effect effect="spiro" id="path-effect7278" is_visible="true"/>
    <inkscape:path-effect is_visible="true" id="path-effect7274" effect="spiro"/>
    <inkscape:path-effect is_visible="true" id="path-effect7241" effect="spiro"/>
    <inkscape:path-effect is_visible="true" id="path-effect7237" effect="spiro"/>
    <inkscape:path-effect is_visible="true" id="path-effect7233" effect="spiro"/>
    <inkscape:path-effect is_visible="true" id="path-effect7219" effect="spiro"/>
    <inkscape:path-effect is_visible="true" id="path-effect7192" effect="spiro"/>
    <inkscape:path-effect effect="spiro" id="path-effect7091" is_visible="true"/>
    <inkscape:path-effect is_visible="true" id="path-effect7087" effect="spiro"/>
    <inkscape:path-effect effect="spiro" id="path-effect7083" is_visible="true"/>
    <inkscape:path-effect effect="spiro" id="path-effect7079" is_visible="true"/>
    <inkscape:path-effect is_visible="true" id="path-effect7075" effect="spiro"/>
    <inkscape:path-effect effect="spiro" id="path-effect6990" is_visible="true"/>
    <inkscape:path-effect is_visible="true" id="path-effect6986" effect="spiro"/>
    <inkscape:path-effect is_visible="true" id="path-effect6982" effect="spiro"/>
    <inkscape:path-effect effect="spiro" id="path-effect6978" is_visible="true"/>
    <inkscape:path-effect effect="spiro" id="path-effect6974" is_visible="true"/>
    <inkscape:path-effect is_visible="true" id="path-effect6970" effect="spiro"/>
    <inkscape:path-effect is_visible="true" id="path-effect6854" effect="spiro"/>
    <inkscape:path-effect effect="spiro" id="path-effect6850" is_visible="true"/>
    <inkscape:path-effect is_visible="true" id="path-effect6846" effect="spiro"/>
    <inkscape:path-effect is_visible="true" id="path-effect6842" effect="spiro"/>
    <inkscape:path-effect effect="spiro" id="path-effect6838" is_visible="true"/>
    <inkscape:path-effect is_visible="true" id="path-effect6834" effect="spiro"/>
    <inkscape:path-effect effect="spiro" id="path-effect6830" is_visible="true"/>
    <inkscape:path-effect is_visible="true" id="path-effect6826" effect="spiro"/>
    <inkscape:path-effect effect="spiro" id="path-effect6822" is_visible="true"/>
    <inkscape:path-effect is_visible="true" id="path-effect6818" effect="spiro"/>
    <inkscape:path-effect effect="spiro" id="path-effect6814" is_visible="true"/>
    <inkscape:path-effect is_visible="true" id="path-effect6810" effect="spiro"/>
    <inkscape:path-effect is_visible="true" id="path-effect6733" effect="spiro"/>
    <inkscape:path-effect effect="spiro" id="path-effect6729" is_visible="true"/>
    <inkscape:path-effect is_visible="true" id="path-effect6725" effect="spiro"/>
    <inkscape:path-effect is_visible="true" id="path-effect6709" effect="spiro"/>
    <inkscape:path-effect is_visible="true" id="path-effect6705" effect="spiro"/>
    <inkscape:path-effect effect="spiro" id="path-effect6701" is_visible="true"/>
    <inkscape:path-effect is_visible="true" id="path-effect6697" effect="spiro"/>
    <inkscape:path-effect effect="spiro" id="path-effect6693" is_visible="true"/>
    <inkscape:path-effect is_visible="true" id="path-effect6689" effect="spiro"/>
    <inkscape:path-effect effect="spiro" id="path-effect6685" is_visible="true"/>
    <inkscape:path-effect is_visible="true" id="path-effect6681" effect="spiro"/>
    <inkscape:path-effect effect="spiro" id="path-effect6654" is_visible="true"/>
    <inkscape:path-effect is_visible="true" id="path-effect6649" effect="spiro"/>
    <inkscape:path-effect effect="spiro" id="path-effect6644" is_visible="true"/>
    <inkscape:path-effect is_visible="true" id="path-effect6641" effect="spiro"/>
    <inkscape:path-effect is_visible="true" id="path-effect6638" effect="spiro"/>
    <inkscape:path-effect effect="spiro" id="path-effect6634" is_visible="true"/>
    <inkscape:path-effect is_visible="true" id="path-effect6630" effect="spiro"/>
    <inkscape:path-effect is_visible="true" id="path-effect6568" effect="spiro"/>
    <inkscape:path-effect effect="spiro" id="path-effect6564" is_visible="true"/>
    <inkscape:path-effect is_visible="true" id="path-effect6560" effect="spiro"/>
    <inkscape:path-effect effect="spiro" id="path-effect6556" is_visible="true"/>
    <inkscape:path-effect is_visible="true" id="path-effect6552" effect="spiro"/>
    <inkscape:path-effect is_visible="true" id="path-effect6547" effect="spiro"/>
    <inkscape:path-effect is_visible="true" id="path-effect6527" effect="spiro"/>
    <inkscape:path-effect effect="spiro" id="path-effect6481" is_visible="true"/>
    <inkscape:path-effect is_visible="true" id="path-effect6477" effect="spiro"/>
    <inkscape:path-effect effect="spiro" id="path-effect6473" is_visible="true"/>
    <inkscape:path-effect is_visible="true" id="path-effect6469" effect="spiro"/>
    <inkscape:path-effect effect="spiro" id="path-effect6465" is_visible="true"/>
    <inkscape:path-effect is_visible="true" id="path-effect6461" effect="spiro"/>
    <inkscape:path-effect effect="spiro" id="path-effect6457" is_visible="true"/>
    <inkscape:path-effect is_visible="true" id="path-effect6453" effect="spiro"/>
    <inkscape:path-effect is_visible="true" id="path-effect6441" effect="spiro"/>
    <inkscape:path-effect is_visible="true" id="path-effect6397" effect="spiro"/>
    <inkscape:path-effect effect="spiro" id="path-effect6393" is_visible="true"/>
    <inkscape:path-effect effect="spiro" id="path-effect6389" is_visible="true"/>
    <inkscape:path-effect is_visible="true" id="path-effect6385" effect="spiro"/>
    <inkscape:path-effect is_visible="true" id="path-effect6381" effect="spiro"/>
    <inkscape:path-effect effect="spiro" id="path-effect6377" is_visible="true"/>
    <inkscape:path-effect effect="spiro" id="path-effect6373" is_visible="true"/>
    <inkscape:path-effect is_visible="true" id="path-effect6369" effect="spiro"/>
    <inkscape:path-effect is_visible="true" id="path-effect6353" effect="spiro"/>
    <inkscape:path-effect effect="spiro" id="path-effect6349" is_visible="true"/>
    <inkscape:path-effect is_visible="true" id="path-effect6345" effect="spiro"/>
    <inkscape:path-effect effect="spiro" id="path-effect6337" is_visible="true"/>
    <inkscape:path-effect is_visible="true" id="path-effect6333" effect="spiro"/>
    <inkscape:path-effect effect="spiro" id="path-effect6329" is_visible="true"/>
    <inkscape:path-effect effect="spiro" id="path-effect6320" is_visible="true"/>
    <inkscape:path-effect is_visible="true" id="path-effect6316" effect="spiro"/>
    <inkscape:path-effect effect="spiro" id="path-effect6312" is_visible="true"/>
    <inkscape:path-effect is_visible="true" id="path-effect6308" effect="spiro"/>
    <inkscape:path-effect effect="spiro" id="path-effect6260" is_visible="true"/>
    <inkscape:path-effect is_visible="true" id="path-effect6256" effect="spiro"/>
    <inkscape:path-effect effect="spiro" id="path-effect6252" is_visible="true"/>
    <inkscape:path-effect is_visible="true" id="path-effect6248" effect="spiro"/>
    <inkscape:path-effect is_visible="true" id="path-effect6203" effect="spiro"/>
    <inkscape:path-effect is_visible="true" id="path-effect6200" effect="spiro"/>
    <inkscape:path-effect is_visible="true" id="path-effect6197" effect="spiro"/>
    <inkscape:path-effect effect="spiro" id="path-effect6157" is_visible="true"/>
    <inkscape:path-effect effect="spiro" id="path-effect6154" is_visible="true"/>
    <inkscape:path-effect effect="spiro" id="path-effect6151" is_visible="true"/>
    <inkscape:path-effect is_visible="true" id="path-effect6024" effect="spiro"/>
    <inkscape:path-effect effect="spiro" id="path-effect6016" is_visible="true"/>
    <inkscape:path-effect is_visible="true" id="path-effect6009" effect="spiro"/>
    <inkscape:path-effect is_visible="true" id="path-effect5903" effect="spiro"/>
    <inkscape:path-effect effect="spiro" id="path-effect5899" is_visible="true"/>
    <inkscape:path-effect effect="spiro" id="path-effect5861" is_visible="true"/>
    <inkscape:path-effect is_visible="true" id="path-effect5857" effect="spiro"/>
    <inkscape:path-effect is_visible="true" id="path-effect5720" effect="spiro"/>
    <inkscape:path-effect effect="spiro" id="path-effect5714" is_visible="true"/>
    <inkscape:path-effect is_visible="true" id="path-effect5708" effect="spiro"/>
    <inkscape:path-effect is_visible="true" id="path-effect5702" effect="spiro"/>
    <inkscape:path-effect effect="spiro" id="path-effect5698" is_visible="true"/>
    <inkscape:path-effect effect="spiro" id="path-effect5690" is_visible="true"/>
    <inkscape:path-effect effect="spiro" id="path-effect5684" is_visible="true"/>
    <inkscape:path-effect is_visible="true" id="path-effect5680" effect="spiro"/>
    <inkscape:path-effect effect="spiro" id="path-effect5551" is_visible="true"/>
    <inkscape:path-effect is_visible="true" id="path-effect5545" effect="spiro"/>
    <inkscape:path-effect effect="spiro" id="path-effect5539" is_visible="true"/>
    <inkscape:path-effect effect="spiro" id="path-effect5535" is_visible="true"/>
    <inkscape:path-effect is_visible="true" id="path-effect5531" effect="spiro"/>
    <inkscape:path-effect is_visible="true" id="path-effect5527" effect="spiro"/>
    <inkscape:path-effect effect="spiro" id="path-effect5521" is_visible="true"/>
    <inkscape:path-effect effect="spiro" id="path-effect5515" is_visible="true"/>
    <inkscape:path-effect is_visible="true" id="path-effect5511" effect="spiro"/>
    <inkscape:path-effect effect="spiro" id="path-effect5507" is_visible="true"/>
    <inkscape:path-effect is_visible="true" id="path-effect5503" effect="spiro"/>
    <inkscape:path-effect effect="spiro" id="path-effect5499" is_visible="true"/>
    <inkscape:path-effect is_visible="true" id="path-effect5495" effect="spiro"/>
    <inkscape:path-effect effect="spiro" id="path-effect5491" is_visible="true"/>
    <inkscape:path-effect is_visible="true" id="path-effect5487" effect="spiro"/>
    <inkscape:path-effect is_visible="true" id="path-effect5483" effect="spiro"/>
    <inkscape:path-effect effect="spiro" id="path-effect5479" is_visible="true"/>
    <inkscape:path-effect is_visible="true" id="path-effect5475" effect="spiro"/>
    <inkscape:path-effect effect="spiro" id="path-effect5471" is_visible="true"/>
    <inkscape:path-effect effect="spiro" id="path-effect5467" is_visible="true"/>
    <inkscape:path-effect is_visible="true" id="path-effect5463" effect="spiro"/>
    <inkscape:path-effect is_visible="true" id="path-effect5346" effect="spiro"/>
    <inkscape:path-effect effect="spiro" id="path-effect5342" is_visible="true"/>
    <inkscape:path-effect is_visible="true" id="path-effect5338" effect="spiro"/>
    <inkscape:path-effect effect="spiro" id="path-effect5334" is_visible="true"/>
    <inkscape:path-effect effect="spiro" id="path-effect5330" is_visible="true"/>
    <inkscape:path-effect is_visible="true" id="path-effect5326" effect="spiro"/>
    <inkscape:path-effect effect="spiro" id="path-effect5322" is_visible="true"/>
    <inkscape:path-effect is_visible="true" id="path-effect5318" effect="spiro"/>
    <inkscape:path-effect effect="spiro" id="path-effect5201" is_visible="true"/>
    <inkscape:path-effect is_visible="true" id="path-effect5195" effect="spiro"/>
    <inkscape:path-effect effect="spiro" id="path-effect5189" is_visible="true"/>
    <inkscape:path-effect effect="spiro" id="path-effect5185" is_visible="true"/>
    <inkscape:path-effect is_visible="true" id="path-effect5181" effect="spiro"/>
    <inkscape:path-effect effect="spiro" id="path-effect5173" is_visible="true"/>
    <inkscape:path-effect is_visible="true" id="path-effect5165" effect="spiro"/>
    <inkscape:path-effect is_visible="true" id="path-effect5105" effect="spiro"/>
    <inkscape:path-effect effect="spiro" id="path-effect5101" is_visible="true"/>
    <inkscape:path-effect is_visible="true" id="path-effect5097" effect="spiro"/>
    <inkscape:path-effect effect="spiro" id="path-effect5093" is_visible="true"/>
    <inkscape:path-effect is_visible="true" id="path-effect5089" effect="spiro"/>
    <inkscape:path-effect effect="spiro" id="path-effect5085" is_visible="true"/>
    <inkscape:path-effect is_visible="true" id="path-effect5081" effect="spiro"/>
    <inkscape:path-effect effect="spiro" id="path-effect5077" is_visible="true"/>
    <inkscape:path-effect effect="spiro" id="path-effect5073" is_visible="true"/>
    <inkscape:path-effect is_visible="true" id="path-effect5067" effect="spiro"/>
    <inkscape:path-effect effect="spiro" id="path-effect5061" is_visible="true"/>
    <inkscape:path-effect effect="spiro" id="path-effect5055" is_visible="true"/>
    <inkscape:path-effect is_visible="true" id="path-effect5047" effect="spiro"/>
    <inkscape:path-effect effect="spiro" id="path-effect5043" is_visible="true"/>
    <inkscape:path-effect effect="spiro" id="path-effect5036" is_visible="true"/>
    <inkscape:path-effect is_visible="true" id="path-effect5033" effect="spiro"/>
    <inkscape:path-effect effect="spiro" id="path-effect5030" is_visible="true"/>
    <inkscape:path-effect is_visible="true" id="path-effect5027" effect="spiro"/>
    <inkscape:path-effect effect="spiro" id="path-effect5024" is_visible="true"/>
    <inkscape:path-effect is_visible="true" id="path-effect5021" effect="spiro"/>
    <inkscape:path-effect effect="spiro" id="path-effect5018" is_visible="true"/>
    <inkscape:path-effect is_visible="true" id="path-effect5015" effect="spiro"/>
    <inkscape:path-effect effect="spiro" id="path-effect5012" is_visible="true"/>
    <inkscape:path-effect is_visible="true" id="path-effect5009" effect="spiro"/>
    <inkscape:path-effect effect="spiro" id="path-effect5006" is_visible="true"/>
    <inkscape:path-effect is_visible="true" id="path-effect5003" effect="spiro"/>
    <inkscape:path-effect effect="spiro" id="path-effect5000" is_visible="true"/>
    <inkscape:path-effect is_visible="true" id="path-effect4992" effect="spiro"/>
    <inkscape:path-effect effect="spiro" id="path-effect4989" is_visible="true"/>
    <inkscape:path-effect is_visible="true" id="path-effect4986" effect="spiro"/>
    <inkscape:path-effect effect="spiro" id="path-effect4983" is_visible="true"/>
    <inkscape:path-effect is_visible="true" id="path-effect4980" effect="spiro"/>
    <inkscape:path-effect effect="spiro" id="path-effect4977" is_visible="true"/>
    <inkscape:path-effect is_visible="true" id="path-effect4889" effect="spiro"/>
    <inkscape:path-effect effect="spiro" id="path-effect4885" is_visible="true"/>
    <inkscape:path-effect is_visible="true" id="path-effect4881" effect="spiro"/>
    <inkscape:path-effect effect="spiro" id="path-effect4877" is_visible="true"/>
    <inkscape:path-effect is_visible="true" id="path-effect4873" effect="spiro"/>
    <inkscape:path-effect effect="spiro" id="path-effect4869" is_visible="true"/>
    <inkscape:path-effect is_visible="true" id="path-effect4855" effect="spiro"/>
    <inkscape:path-effect effect="spiro" id="path-effect4851" is_visible="true"/>
    <inkscape:path-effect is_visible="true" id="path-effect4847" effect="spiro"/>
    <inkscape:path-effect effect="spiro" id="path-effect4843" is_visible="true"/>
    <inkscape:path-effect is_visible="true" id="path-effect4839" effect="spiro"/>
    <inkscape:path-effect effect="spiro" id="path-effect4835" is_visible="true"/>
    <inkscape:path-effect is_visible="true" id="path-effect4831" effect="spiro"/>
    <inkscape:path-effect effect="spiro" id="path-effect4827" is_visible="true"/>
    <inkscape:path-effect is_visible="true" id="path-effect4823" effect="spiro"/>
    <inkscape:path-effect effect="spiro" id="path-effect4819" is_visible="true"/>
    <inkscape:path-effect is_visible="true" id="path-effect4815" effect="spiro"/>
    <inkscape:path-effect effect="spiro" id="path-effect4811" is_visible="true"/>
    <inkscape:path-effect is_visible="true" id="path-effect4806" effect="spiro"/>
    <inkscape:path-effect is_visible="true" id="path-effect4751" effect="spiro"/>
    <inkscape:path-effect effect="spiro" id="path-effect4747" is_visible="true"/>
    <inkscape:path-effect is_visible="true" id="path-effect4743" effect="spiro"/>
    <inkscape:path-effect effect="spiro" id="path-effect4739" is_visible="true"/>
    <inkscape:path-effect is_visible="true" id="path-effect4735" effect="spiro"/>
    <inkscape:path-effect effect="spiro" id="path-effect4642" is_visible="true"/>
    <inkscape:path-effect is_visible="true" id="path-effect4638" effect="spiro"/>
    <inkscape:path-effect effect="spiro" id="path-effect4407" is_visible="true"/>
    <inkscape:path-effect is_visible="true" id="path-effect4403" effect="spiro"/>
    <inkscape:path-effect effect="spiro" id="path-effect4399" is_visible="true"/>
    <inkscape:path-effect is_visible="true" id="path-effect4395" effect="spiro"/>
    <inkscape:path-effect effect="spiro" id="path-effect4391" is_visible="true"/>
    <inkscape:path-effect is_visible="true" id="path-effect4387" effect="spiro"/>
    <inkscape:path-effect effect="spiro" id="path-effect4383" is_visible="true"/>
    <inkscape:path-effect is_visible="true" id="path-effect4379" effect="spiro"/>
    <inkscape:path-effect effect="spiro" id="path-effect4374" is_visible="true"/>
    <inkscape:path-effect is_visible="true" id="path-effect4370" effect="spiro"/>
    <inkscape:path-effect effect="spiro" id="path-effect4366" is_visible="true"/>
    <inkscape:path-effect is_visible="true" id="path-effect4362" effect="spiro"/>
    <inkscape:path-effect effect="spiro" id="path-effect4358" is_visible="true"/>
    <inkscape:path-effect is_visible="true" id="path-effect4354" effect="spiro"/>
    <inkscape:path-effect effect="spiro" id="path-effect4350" is_visible="true"/>
    <inkscape:path-effect is_visible="true" id="path-effect4346" effect="spiro"/>
    <inkscape:path-effect effect="spiro" id="path-effect4342" is_visible="true"/>
    <inkscape:path-effect is_visible="true" id="path-effect4338" effect="spiro"/>
    <inkscape:path-effect effect="spiro" id="path-effect4334" is_visible="true"/>
    <inkscape:path-effect is_visible="true" id="path-effect4330" effect="spiro"/>
    <inkscape:path-effect effect="spiro" id="path-effect4326" is_visible="true"/>
    <inkscape:path-effect is_visible="true" id="path-effect4322" effect="spiro"/>
    <inkscape:path-effect effect="spiro" id="path-effect4816" is_visible="true"/>
    <inkscape:path-effect is_visible="true" id="path-effect4813" effect="spiro"/>
    <inkscape:path-effect is_visible="true" id="path-effect4810" effect="spiro"/>
    <inkscape:path-effect effect="spiro" id="path-effect4807" is_visible="true"/>
    <inkscape:path-effect effect="spiro" id="path-effect4804" is_visible="true"/>
    <inkscape:path-effect is_visible="true" id="path-effect4801" effect="spiro"/>
    <inkscape:path-effect is_visible="true" id="path-effect4798" effect="spiro"/>
    <inkscape:path-effect effect="spiro" id="path-effect4795" is_visible="true"/>
    <inkscape:path-effect effect="spiro" id="path-effect4792" is_visible="true"/>
    <inkscape:path-effect is_visible="true" id="path-effect4789" effect="spiro"/>
    <inkscape:path-effect is_visible="true" id="path-effect4786" effect="spiro"/>
    <inkscape:path-effect effect="spiro" id="path-effect4783" is_visible="true"/>
    <inkscape:path-effect is_visible="true" id="path-effect4728" effect="spiro"/>
    <inkscape:path-effect effect="spiro" id="path-effect4724" is_visible="true"/>
    <inkscape:path-effect effect="spiro" id="path-effect4720" is_visible="true"/>
    <inkscape:path-effect is_visible="true" id="path-effect4716" effect="spiro"/>
    <inkscape:path-effect is_visible="true" id="path-effect4712" effect="spiro"/>
    <inkscape:path-effect effect="spiro" id="path-effect4708" is_visible="true"/>
    <inkscape:path-effect effect="spiro" id="path-effect4704" is_visible="true"/>
    <inkscape:path-effect is_visible="true" id="path-effect4700" effect="spiro"/>
    <inkscape:path-effect is_visible="true" id="path-effect4696" effect="spiro"/>
    <inkscape:path-effect effect="spiro" id="path-effect4692" is_visible="true"/>
    <inkscape:path-effect effect="spiro" id="path-effect4688" is_visible="true"/>
    <inkscape:path-effect is_visible="true" id="path-effect4684" effect="spiro"/>
    <inkscape:path-effect effect="spiro" id="path-effect4680" is_visible="true"/>
    <inkscape:path-effect effect="spiro" id="path-effect4676" is_visible="true"/>
    <inkscape:path-effect is_visible="true" id="path-effect4672" effect="spiro"/>
    <inkscape:path-effect is_visible="true" id="path-effect4668" effect="spiro"/>
    <inkscape:path-effect effect="spiro" id="path-effect4664" is_visible="true"/>
    <inkscape:path-effect effect="spiro" id="path-effect4660" is_visible="true"/>
    <inkscape:path-effect is_visible="true" id="path-effect4656" effect="spiro"/>
    <inkscape:path-effect is_visible="true" id="path-effect4652" effect="spiro"/>
    <inkscape:path-effect effect="spiro" id="path-effect4648" is_visible="true"/>
    <inkscape:path-effect effect="spiro" id="path-effect4644" is_visible="true"/>
    <inkscape:path-effect is_visible="true" id="path-effect4624" effect="spiro"/>
    <inkscape:path-effect effect="spiro" id="path-effect4620" is_visible="true"/>
    <inkscape:path-effect effect="spiro" id="path-effect4616" is_visible="true"/>
    <inkscape:path-effect is_visible="true" id="path-effect4612" effect="spiro"/>
    <inkscape:path-effect effect="spiro" id="path-effect4603" is_visible="true"/>
    <inkscape:path-effect is_visible="true" id="path-effect4600" effect="spiro"/>
    <inkscape:path-effect effect="spiro" id="path-effect4597" is_visible="true"/>
    <inkscape:path-effect is_visible="true" id="path-effect4594" effect="spiro"/>
    <inkscape:path-effect effect="spiro" id="path-effect4591" is_visible="true"/>
    <inkscape:path-effect is_visible="true" id="path-effect4588" effect="spiro"/>
    <inkscape:path-effect effect="spiro" id="path-effect4585" is_visible="true"/>
    <inkscape:path-effect is_visible="true" id="path-effect4542" effect="spiro"/>
    <inkscape:path-effect effect="spiro" id="path-effect4538" is_visible="true"/>
    <inkscape:path-effect is_visible="true" id="path-effect4534" effect="spiro"/>
    <inkscape:path-effect effect="spiro" id="path-effect4530" is_visible="true"/>
    <inkscape:path-effect is_visible="true" id="path-effect4526" effect="spiro"/>
    <inkscape:path-effect effect="spiro" id="path-effect4522" is_visible="true"/>
    <inkscape:path-effect is_visible="true" id="path-effect4518" effect="spiro"/>
    <inkscape:path-effect effect="spiro" id="path-effect4295" is_visible="true"/>
    <inkscape:path-effect is_visible="true" id="path-effect4291" effect="spiro"/>
    <inkscape:path-effect is_visible="true" id="path-effect4287" effect="spiro"/>
    <inkscape:path-effect effect="spiro" id="path-effect4283" is_visible="true"/>
    <inkscape:path-effect effect="spiro" id="path-effect4279" is_visible="true"/>
    <inkscape:path-effect is_visible="true" id="path-effect4275" effect="spiro"/>
    <inkscape:path-effect is_visible="true" id="path-effect4157" effect="spiro"/>
    <inkscape:path-effect is_visible="true" id="path-effect4153" effect="spiro"/>
    <inkscape:path-effect effect="spiro" id="path-effect4239" is_visible="true"/>
    <inkscape:path-effect is_visible="true" id="path-effect4223" effect="spiro"/>
    <inkscape:path-effect effect="spiro" id="path-effect4217" is_visible="true"/>
    <inkscape:path-effect is_visible="true" id="path-effect4213" effect="spiro"/>
    <inkscape:path-effect is_visible="true" id="path-effect5296" effect="spiro"/>
    <inkscape:path-effect is_visible="true" id="path-effect7060" effect="spiro"/>
    <inkscape:path-effect effect="spiro" id="path-effect6771" is_visible="true"/>
    <inkscape:path-effect is_visible="true" id="path-effect6833" effect="spiro"/>
    <inkscape:path-effect effect="spiro" id="path-effect6839" is_visible="true"/>
    <inkscape:path-effect is_visible="true" id="path-effect6848" effect="spiro"/>
    <inkscape:path-effect effect="spiro" id="path-effect6856" is_visible="true"/>
  </defs>
  
  <g transform="translate(0,-1020.3622)" id="layer1" inkscape:groupmode="layer" inkscape:label="Layer 1">
    <g aria-label="A" style="font-style:normal;font-weight:normal;font-size:1.33333337px;line-height:1.25;font-family:sans-serif;letter-spacing:0px;word-spacing:0px;fill:#000000;fill-opacity:1;stroke:none" id="text5755"/>
    <g aria-label="1" style="font-style:normal;font-weight:normal;font-size:1.33333337px;line-height:1.25;font-family:sans-serif;letter-spacing:0px;word-spacing:0px;fill:#000000;fill-opacity:1;stroke:none" id="text5759"/>
    <g id="g6647" transform="translate(14.554567,2.8613639)"/>
    <path inkscape:connector-curvature="0" style="color:#000000;font-style:normal;font-variant:normal;font-weight:normal;font-stretch:normal;font-size:medium;line-height:normal;font-family:sans-serif;text-indent:0;text-align:start;text-decoration:none;text-decoration-line:none;text-decoration-style:solid;text-decoration-color:#000000;letter-spacing:normal;word-spacing:normal;text-transform:none;direction:ltr;block-progression:tb;writing-mode:lr-tb;baseline-shift:baseline;text-anchor:start;white-space:normal;clip-rule:nonzero;display:inline;overflow:visible;visibility:visible;opacity:1;isolation:auto;mix-blend-mode:normal;color-interpolation:sRGB;color-interpolation-filters:linearRGB;solid-color:#000000;solid-opacity:1;fill:#000000;fill-opacity:1;fill-rule:nonzero;stroke:none;stroke-width:1;stroke-linecap:butt;stroke-linejoin:round;stroke-miterlimit:4;stroke-dasharray:none;stroke-dashoffset:0;stroke-opacity:1;paint-order:fill markers stroke;color-rendering:auto;image-rendering:auto;shape-rendering:auto;text-rendering:auto;enable-background:accumulate" d="m 4.5,1020.3622 c -0.82235,0 -1.5,0.6777 -1.5,1.5 l 0,1.5 -1,0 c -1.09938001,0 -2,0.9007 -2,2 l 0,4 0,18 c 0,1.0994 0.90063999,2 2,2 l 17.10938,0 c 2.1882,2.1381 5.61409,2.6655 8.39062,1.0625 3.34295,-1.93 4.49059,-6.2196 2.56055,-9.5625 -0.2994,-0.5186 -0.65994,-0.977 -1.06055,-1.3867 l 0,-8.4024 0,-2.2109 0,-3.5 c 0,-1.0993 -0.90062,-2 -2,-2 l -1,0 0,-1.5 c 0,-0.8223 -0.67765,-1.5 -1.5,-1.5 -0.82235,0 -1.5,0.6777 -1.5,1.5 l 0,1.5 -2,0 0,-1.5 c 0,-0.8223 -0.67765,-1.5 -1.5,-1.5 -0.82235,0 -1.5,0.6777 -1.5,1.5 l 0,1.5 -2,0 0,-1.5 c 0,-0.8223 -0.67765,-1.5 -1.5,-1.5 -0.82235,0 -1.5,0.6777 -1.5,1.5 l 0,1.5 -2,0 0,-1.5 c 0,-0.8223 -0.67765,-1.5 -1.4999998,-1.5 C 8.67765,1020.3622 8,1021.0399 8,1021.8622 l 0,1.5 -2,0 0,-1.5 c 0,-0.8223 -0.67765,-1.5 -1.5,-1.5 z m 0,1 c 0.28565,0 0.5,0.2144 0.5,0.5 l 0,3 c 0,0.2857 -0.21435,0.5 -0.5,0.5 -0.28565,0 -0.5,-0.2143 -0.5,-0.5 l 0,-3 c 0,-0.2856 0.21435,-0.5 0.5,-0.5 z m 5.0000002,0 c 0.28565,0 0.4999998,0.2144 0.4999998,0.5 l 0,3 c 0,0.2857 -0.2143498,0.5 -0.4999998,0.5 C 9.21435,1025.3622 9,1025.1479 9,1024.8622 l 0,-3 c 0,-0.2856 0.21435,-0.5 0.5000002,-0.5 z m 4.9999998,0 c 0.28565,0 0.5,0.2144 0.5,0.5 l 0,3 c 0,0.2857 -0.21435,0.5 -0.5,0.5 -0.28565,0 -0.5,-0.2143 -0.5,-0.5 l 0,-3 c 0,-0.2856 0.21435,-0.5 0.5,-0.5 z m 5,0 c 0.28565,0 0.5,0.2144 0.5,0.5 l 0,3 c 0,0.2857 -0.21435,0.5 -0.5,0.5 -0.28565,0 -0.5,-0.2143 -0.5,-0.5 l 0,-3 c 0,-0.2856 0.21435,-0.5 0.5,-0.5 z m 5,0 c 0.28565,0 0.5,0.2144 0.5,0.5 l 0,1.5 0,1 0,0.5 c 0,0.2857 -0.21435,0.5 -0.5,0.5 -0.28565,0 -0.5,-0.2143 -0.5,-0.5 l 0,-3 c 0,-0.2856 0.21435,-0.5 0.5,-0.5 z m -22.5,3 1,0 0,0.5 c 0,0.8224 0.67765,1.5 1.5,1.5 0.82235,0 1.5,-0.6776 1.5,-1.5 l 0,-0.5 2,0 0,0.5 c 0,0.8224 0.67765,1.5 1.5000002,1.5 0.8223498,0 1.4999998,-0.6776 1.4999998,-1.5 l 0,-0.5 2,0 0,0.5 c 0,0.8224 0.67765,1.5 1.5,1.5 0.82235,0 1.5,-0.6776 1.5,-1.5 l 0,-0.5 2,0 0,0.5 c 0,0.8224 0.67765,1.5 1.5,1.5 0.82235,0 1.5,-0.6776 1.5,-1.5 l 0,-0.5 2,0 0,0.5 c 0,0.8224 0.67765,1.5 1.5,1.5 0.82235,0 1.5,-0.6776 1.5,-1.5 l 0,-0.5 1,0 c 0.5627,0 1,0.4374 1,1 l 0,3 -27.00000001,0 0,-3 c 0,-0.5626 0.43730001,-1 1.00000001,-1 z m -1.00000001,5 27.00000001,0 0,1.7109 0,7.5547 c -0.31878,-0.2217 -0.65201,-0.4193 -1,-0.584 l 0,-1.1816 c -3e-5,-0.2761 -0.22387,-0.5 -0.5,-0.5 l -1.75,0 -1.25,0 c -0.27613,0 -0.49997,0.2239 -0.5,0.5 l 0,0.5762 c -0.33571,0.048 -0.66974,0.1241 -1,0.2226 l 0,-0.7988 c -3e-5,-0.2761 -0.22387,-0.5 -0.5,-0.5 l -3,0 c -0.29691,0 -0.5,0.2693 -0.5,0.5 l 0,3 c 2e-5,0.2035 0.12231,0.3751 0.29688,0.4531 -1.52985,2.1632 -1.76878,5.1057 -0.35938,7.5469 0.10019,0.1735 0.20982,0.3384 0.32227,0.5 l -16.25977,0 c -0.56266,0 -1.00000001,-0.4373 -1.00000001,-1 l 0,-18 z m 1.50000001,2 c -0.27613,0 -0.49997,0.2239 -0.5,0.5 l 0,2 c 3e-5,0.2761 0.22387,0.5 0.5,0.5 l 4,0 c 0.27613,0 0.49997,-0.2239 0.5,-0.5 l 0,-2 c -3e-5,-0.2761 -0.22387,-0.5 -0.5,-0.5 l -4,0 z m 16,0 c -0.27613,0 -0.49997,0.2239 -0.5,0.5 l 0,3 c 3e-5,0.2761 0.22387,0.5 0.5,0.5 l 3,0 c 0.27613,0 0.49997,-0.2239 0.5,-0.5 l 0,-3 c -3e-5,-0.2761 -0.22387,-0.5 -0.5,-0.5 l -3,0 z m 5,0 c -0.27613,0 -0.49997,0.2239 -0.5,0.5 l 0,3 c 3e-5,0.2761 0.22387,0.5 0.5,0.5 l 3,0 c 0.27613,0 0.49997,-0.2239 0.5,-0.5 l 0,-3 c -3e-5,-0.2761 -0.22387,-0.5 -0.5,-0.5 l -3,0 z m -20.5,1 3,0 0,1 -3,0 0,-1 z m 16,0 2,0 0,2 -2,0 0,-2 z m 5,0 2,0 0,2 -2,0 0,-2 z m -21.5,3 c -0.27613,0 -0.49997,0.2239 -0.5,0.5 l 0,2 c 3e-5,0.2761 0.22387,0.5 0.5,0.5 l 4,0 c 0.27613,0 0.49997,-0.2239 0.5,-0.5 l 0,-2 c -3e-5,-0.2761 -0.22387,-0.5 -0.5,-0.5 l -4,0 z m 0.5,1 3,0 0,1 -3,0 0,-1 z m 5.5,0 c -0.27613,0 -0.49997,0.2239 -0.5,0.5 l 0,3 c 3e-5,0.2761 0.22387,0.5 0.5,0.5 l 3,0 c 0.27613,0 0.49997,-0.2239 0.5,-0.5 l 0,-3 c -3e-5,-0.2761 -0.22387,-0.5 -0.5,-0.5 l -3,0 z m 5,0 c -0.27613,0 -0.49997,0.2239 -0.5,0.5 l 0,3 c 3e-5,0.2761 0.22387,0.5 0.5,0.5 l 3,0 c 0.27613,0 0.49997,-0.2239 0.5,-0.5 l 0,-3 c -3e-5,-0.2761 -0.22387,-0.5 -0.5,-0.5 l -3,0 z m -4.5,1 2,0 0,2 -2,0 0,-2 z m 5,0 2,0 0,2 -2,0 0,-2 z m 5,0 2,0 0,0.6816 c -0.1682,0.08 -0.33597,0.1612 -0.5,0.2559 -0.51878,0.2995 -0.97886,0.6617 -1.38867,1.0625 l -0.11133,0 0,-2 z m 5,0 0.75,0 1.25,0 0,0.3027 c -0.64735,-0.1931 -1.32025,-0.2937 -2,-0.2949 l 0,-0.01 z m 0.5,1.0215 c 1.88993,0.1589 3.67286,1.2074 4.69531,2.9785 0.45791,0.7931 0.7077,1.6457 0.7793,2.5 l -0.97266,0 c -0.67616,-0.01 -0.67616,1.0096 0,1 l 0.97657,0 c -0.15887,1.89 -1.20735,3.6728 -2.97852,4.6953 -0.7925,0.4576 -1.64636,0.7075 -2.5,0.7793 l 0,-0.9746 c 0.003,-0.2815 -0.22635,-0.5103 -0.50781,-0.5059 -0.27535,0 -0.49539,0.2305 -0.49219,0.5059 l 0,0.9785 c -1.89064,-0.1584 -3.6744,-1.2068 -4.69727,-2.9785 -0.45791,-0.7931 -0.7077,-1.6457 -0.77929,-2.5 l 0.97461,0 c 0.67616,0.01 0.67616,-1.0096 0,-1 l -0.97852,0 c 0.15841,-1.8907 1.20883,-3.6744 2.98047,-4.6973 0.79317,-0.4579 1.64564,-0.7077 2.5,-0.7793 l 0,0.9766 c -0.01,0.6762 1.00956,0.6762 1,0 l 0,-0.9785 z m -22,0.9785 c -0.27613,0 -0.49997,0.2239 -0.5,0.5 l 0,2 c 3e-5,0.2761 0.22387,0.5 0.5,0.5 l 4,0 c 0.27613,0 0.49997,-0.2239 0.5,-0.5 l 0,-2 c -3e-5,-0.2761 -0.22387,-0.5 -0.5,-0.5 l -4,0 z m 0.5,1 3,0 0,1 -3,0 0,-1 z m 22.03516,0.1367 -0.74219,0.836 -0.63477,2.3691 c -0.23937,0.1253 -0.40819,0.3693 -0.4082,0.6582 10e-6,0.4142 0.33578,0.75 0.75,0.75 0.0126,0 0.0227,-0.01 0.0352,-0.01 l 1.73242,1.7324 1.06054,0.3535 -0.35351,-1.0605 -1.73242,-1.7324 c 6.1e-4,-0.012 0.008,-0.023 0.008,-0.035 0,-0.148 -0.0529,-0.2783 -0.12695,-0.3945 l 0.63672,-2.375 -0.22461,-1.0938 z M 8.5,1041.3622 c -0.27613,0 -0.49997,0.2239 -0.5,0.5 l 0,3 c 3e-5,0.2761 0.22387,0.5 0.5,0.5 l 3,0 c 0.27613,0 0.49997,-0.2239 0.5,-0.5 l 0,-3 c -3e-5,-0.2761 -0.22387,-0.5 -0.5,-0.5 l -3,0 z m 5,0 c -0.27613,0 -0.49997,0.2239 -0.5,0.5 l 0,3 c 3e-5,0.2761 0.22387,0.5 0.5,0.5 l 3,0 c 0.27613,0 0.49997,-0.2239 0.5,-0.5 l 0,-3 c -3e-5,-0.2761 -0.22387,-0.5 -0.5,-0.5 l -3,0 z m -4.5,1 2,0 0,2 -2,0 0,-2 z m 5,0 2,0 0,2 -2,0 0,-2 z m -11.5,1 c -0.27613,0 -0.49997,0.2239 -0.5,0.5 l 0,2 c 3e-5,0.2761 0.22387,0.5 0.5,0.5 l 4,0 c 0.27613,0 0.49997,-0.2239 0.5,-0.5 l 0,-2 c -3e-5,-0.2761 -0.22387,-0.5 -0.5,-0.5 l -4,0 z m 0.5,1 3,0 0,1 -3,0 0,-1 z" id="path7523"/>
  </g>
  <style type="text/css" id="style5178">
	.st0{fill:#030102;}
</style>

	<metadata>
		<rdf:RDF xmlns:rdf="http://www.w3.org/1999/02/22-rdf-syntax-ns#" xmlns:rdfs="http://www.w3.org/2000/01/rdf-schema#" xmlns:dc="http://purl.org/dc/elements/1.1/">
			<rdf:Description about="https://iconscout.com/legal#licenses" dc:title="Calendar-date-schedule-timeframe-wall calendar-clock" dc:description="Calendar-date-schedule-timeframe-wall calendar-clock" dc:publisher="Iconscout" dc:date="2017-07-10" dc:format="image/svg+xml" dc:language="en">
				<dc:creator>
					<rdf:Bag>
						<rdf:li>Devendra Karkar</rdf:li>
					</rdf:Bag>
				</dc:creator>
			</rdf:Description>
		</rdf:RDF>
    </metadata></svg>
