<svg xmlns="http://www.w3.org/2000/svg" enable-background="new 0 0 32 32" viewBox="0 0 32 32"><path d="M30.37,7.64001c-0.71002-0.5-1.62-0.62006-2.44-0.33002l-5.03998,1.81c-0.54999-1.44-1.94-2.46002-3.57001-2.46002H4.33002C2.21997,6.65997,0.5,8.38,0.5,10.5v11c0,2.12,1.71997,3.83997,3.83002,3.83997h14.98999c1.63,0,3.02002-1.01996,3.57001-2.45996l5.03998,1.81c0.28998,0.09998,0.60004,0.14996,0.90002,0.14996c0.54999,0,1.07996-0.15997,1.53998-0.47998c0.71002-0.5,1.13-1.32001,1.13-2.17999V9.82001C31.5,8.95996,31.08002,8.14001,30.37,7.64001z M20.15002,21.5c0,0.45996-0.37,0.83997-0.83002,0.83997H4.33002C3.87,22.33997,3.5,21.95996,3.5,21.5v-11c0-0.46002,0.37-0.84003,0.83002-0.84003h14.98999c0.46002,0,0.83002,0.38,0.83002,0.84003V21.5z"/></svg>