<?xml version="1.0" encoding="UTF-8"?>
<svg xmlns="http://www.w3.org/2000/svg" xmlns:xlink="http://www.w3.org/1999/xlink" width="768pt" height="767.999994pt" viewBox="0 0 768 767.999994" version="1.2">
<defs>
<clipPath id="clip1">
  <path d="M 44 190 L 531 190 L 531 578.226562 L 44 578.226562 Z M 44 190 "/>
</clipPath>
<clipPath id="clip2">
  <path d="M 579 257 L 724.164062 257 L 724.164062 510 L 579 510 Z M 579 257 "/>
</clipPath>
</defs>
<g id="surface1">
<g clip-path="url(#clip1)" clip-rule="nonzero">
<path style=" stroke:none;fill-rule:nonzero;fill:rgb(100%,100%,100%);fill-opacity:1;" d="M 140.195312 578.226562 L 435.40625 578.226562 C 436.96875 578.226562 438.53125 578.1875 440.089844 578.109375 C 441.648438 578.035156 443.207031 577.917969 444.761719 577.765625 C 446.316406 577.613281 447.867188 577.421875 449.410156 577.191406 C 450.957031 576.964844 452.496094 576.695312 454.027344 576.390625 C 455.558594 576.085938 457.082031 575.746094 458.597656 575.367188 C 460.113281 574.988281 461.617188 574.570312 463.113281 574.117188 C 464.609375 573.664062 466.089844 573.175781 467.5625 572.648438 C 469.03125 572.121094 470.488281 571.558594 471.933594 570.960938 C 473.375 570.363281 474.804688 569.730469 476.214844 569.0625 C 477.628906 568.398438 479.023438 567.695312 480.402344 566.957031 C 481.777344 566.222656 483.136719 565.453125 484.476562 564.648438 C 485.816406 563.847656 487.136719 563.011719 488.433594 562.144531 C 489.734375 561.277344 491.011719 560.378906 492.265625 559.445312 C 493.519531 558.515625 494.75 557.554688 495.957031 556.566406 C 497.164062 555.574219 498.347656 554.554688 499.503906 553.507812 C 500.664062 552.457031 501.792969 551.382812 502.898438 550.277344 C 504.003906 549.171875 505.082031 548.042969 506.128906 546.882812 C 507.179688 545.726562 508.199219 544.546875 509.1875 543.339844 C 510.179688 542.128906 511.140625 540.898438 512.070312 539.644531 C 513 538.390625 513.902344 537.113281 514.769531 535.816406 C 515.636719 534.519531 516.472656 533.199219 517.273438 531.859375 C 518.078125 530.519531 518.847656 529.160156 519.585938 527.785156 C 520.320312 526.40625 521.023438 525.011719 521.691406 523.601562 C 522.359375 522.1875 522.992188 520.761719 523.589844 519.320312 C 524.1875 517.875 524.75 516.417969 525.277344 514.949219 C 525.800781 513.476562 526.292969 511.996094 526.746094 510.5 C 527.199219 509.007812 527.613281 507.503906 527.996094 505.988281 C 528.375 504.472656 528.714844 502.949219 529.019531 501.417969 C 529.324219 499.886719 529.59375 498.347656 529.820312 496.800781 C 530.050781 495.257812 530.242188 493.707031 530.394531 492.152344 C 530.546875 490.601562 530.664062 489.042969 530.738281 487.484375 C 530.816406 485.921875 530.855469 484.363281 530.855469 482.800781 L 530.855469 285.757812 C 530.855469 284.195312 530.816406 282.636719 530.738281 281.078125 C 530.664062 279.515625 530.546875 277.960938 530.394531 276.40625 C 530.242188 274.851562 530.050781 273.300781 529.820312 271.757812 C 529.59375 270.210938 529.324219 268.671875 529.019531 267.140625 C 528.714844 265.609375 528.375 264.085938 527.996094 262.570312 C 527.613281 261.058594 527.199219 259.550781 526.746094 258.058594 C 526.292969 256.5625 525.800781 255.082031 525.277344 253.609375 C 524.75 252.140625 524.1875 250.683594 523.589844 249.242188 C 522.992188 247.796875 522.359375 246.371094 521.691406 244.957031 C 521.023438 243.546875 520.320312 242.152344 519.585938 240.773438 C 518.847656 239.398438 518.078125 238.039062 517.273438 236.699219 C 516.472656 235.359375 515.636719 234.042969 514.769531 232.742188 C 513.902344 231.445312 513.003906 230.167969 512.070312 228.914062 C 511.140625 227.660156 510.179688 226.429688 509.1875 225.222656 C 508.199219 224.015625 507.179688 222.832031 506.128906 221.675781 C 505.082031 220.515625 504.003906 219.386719 502.898438 218.28125 C 501.792969 217.179688 500.664062 216.101562 499.503906 215.054688 C 498.347656 214.003906 497.164062 212.984375 495.957031 211.992188 C 494.75 211.003906 493.519531 210.042969 492.265625 209.113281 C 491.011719 208.183594 489.734375 207.28125 488.433594 206.414062 C 487.136719 205.546875 485.816406 204.710938 484.476562 203.910156 C 483.136719 203.105469 481.777344 202.335938 480.402344 201.601562 C 479.023438 200.863281 477.628906 200.164062 476.214844 199.496094 C 474.804688 198.828125 473.375 198.195312 471.933594 197.597656 C 470.488281 197 469.03125 196.4375 467.5625 195.910156 C 466.089844 195.386719 464.609375 194.894531 463.113281 194.441406 C 461.617188 193.988281 460.113281 193.574219 458.597656 193.191406 C 457.082031 192.8125 455.558594 192.472656 454.027344 192.167969 C 452.496094 191.863281 450.957031 191.59375 449.410156 191.367188 C 447.867188 191.136719 446.316406 190.945312 444.761719 190.792969 C 443.207031 190.640625 441.648438 190.523438 440.089844 190.449219 C 438.53125 190.371094 436.96875 190.332031 435.40625 190.332031 L 140.195312 190.332031 C 138.617188 190.332031 137.042969 190.371094 135.464844 190.449219 C 133.890625 190.527344 132.316406 190.644531 130.746094 190.796875 C 129.175781 190.953125 127.613281 191.148438 126.050781 191.378906 C 124.492188 191.609375 122.9375 191.882812 121.390625 192.191406 C 119.839844 192.496094 118.304688 192.84375 116.773438 193.226562 C 115.242188 193.613281 113.722656 194.035156 112.210938 194.492188 C 110.703125 194.953125 109.207031 195.449219 107.71875 195.980469 C 106.234375 196.511719 104.765625 197.082031 103.308594 197.6875 C 101.851562 198.292969 100.410156 198.933594 98.984375 199.609375 C 97.558594 200.285156 96.148438 200.996094 94.757812 201.742188 C 93.367188 202.484375 91.996094 203.265625 90.644531 204.078125 C 89.292969 204.890625 87.960938 205.734375 86.648438 206.613281 C 85.339844 207.492188 84.050781 208.402344 82.785156 209.34375 C 81.519531 210.285156 80.277344 211.257812 79.058594 212.261719 C 77.839844 213.261719 76.648438 214.292969 75.480469 215.355469 C 74.3125 216.417969 73.175781 217.507812 72.058594 218.625 C 70.945312 219.742188 69.863281 220.886719 68.804688 222.058594 C 67.746094 223.226562 66.71875 224.425781 65.722656 225.644531 C 64.722656 226.867188 63.753906 228.113281 62.816406 229.382812 C 61.878906 230.652344 60.976562 231.941406 60.101562 233.257812 C 59.226562 234.570312 58.386719 235.902344 57.578125 237.257812 C 56.773438 238.613281 56 239.988281 55.257812 241.382812 C 54.519531 242.773438 53.8125 244.183594 53.140625 245.613281 C 52.472656 247.039062 51.835938 248.484375 51.234375 249.941406 C 50.636719 251.402344 50.074219 252.875 49.546875 254.363281 C 49.019531 255.847656 48.527344 257.347656 48.074219 258.859375 C 47.621094 260.367188 47.207031 261.890625 46.828125 263.421875 C 46.449219 264.953125 46.109375 266.492188 45.804688 268.039062 C 45.503906 269.589844 45.238281 271.144531 45.011719 272.703125 C 44.785156 274.265625 44.597656 275.832031 44.449219 277.402344 C 44.300781 278.972656 44.191406 280.546875 44.117188 282.121094 C 44.046875 283.695312 44.015625 285.273438 44.019531 286.851562 L 44.019531 481.101562 C 44.003906 482.683594 44.027344 484.269531 44.089844 485.851562 C 44.152344 487.433594 44.253906 489.011719 44.394531 490.589844 C 44.53125 492.167969 44.710938 493.742188 44.929688 495.308594 C 45.148438 496.878906 45.40625 498.441406 45.699219 499.996094 C 45.996094 501.550781 46.328125 503.101562 46.699219 504.640625 C 47.074219 506.179688 47.480469 507.707031 47.929688 509.226562 C 48.375 510.746094 48.863281 512.253906 49.382812 513.75 C 49.90625 515.246094 50.464844 516.726562 51.058594 518.195312 C 51.652344 519.660156 52.285156 521.113281 52.953125 522.550781 C 53.617188 523.988281 54.320312 525.40625 55.058594 526.808594 C 55.792969 528.210938 56.566406 529.59375 57.371094 530.957031 C 58.175781 532.320312 59.015625 533.664062 59.886719 534.984375 C 60.757812 536.308594 61.664062 537.609375 62.597656 538.886719 C 63.535156 540.164062 64.503906 541.417969 65.5 542.648438 C 66.5 543.878906 67.527344 545.082031 68.582031 546.261719 C 69.640625 547.441406 70.726562 548.59375 71.839844 549.71875 C 72.957031 550.84375 74.097656 551.941406 75.265625 553.011719 C 76.433594 554.078125 77.628906 555.121094 78.851562 556.128906 C 80.070312 557.140625 81.316406 558.121094 82.582031 559.066406 C 83.851562 560.015625 85.144531 560.933594 86.457031 561.816406 C 87.769531 562.703125 89.105469 563.554688 90.460938 564.375 C 91.816406 565.191406 93.191406 565.976562 94.589844 566.730469 C 95.984375 567.480469 97.394531 568.195312 98.824219 568.878906 C 100.257812 569.558594 101.703125 570.203125 103.164062 570.8125 C 104.625 571.421875 106.101562 571.996094 107.59375 572.535156 C 109.082031 573.070312 110.585938 573.570312 112.101562 574.03125 C 113.617188 574.496094 115.140625 574.921875 116.679688 575.308594 C 118.214844 575.695312 119.757812 576.042969 121.3125 576.355469 C 122.867188 576.664062 124.425781 576.9375 125.992188 577.171875 C 127.558594 577.40625 129.132812 577.601562 130.707031 577.757812 C 132.285156 577.914062 133.863281 578.03125 135.445312 578.109375 C 137.03125 578.1875 138.613281 578.226562 140.195312 578.226562 Z M 140.195312 578.226562 "/>
</g>
<g clip-path="url(#clip2)" clip-rule="nonzero">
<path style=" stroke:none;fill-rule:nonzero;fill:rgb(100%,100%,100%);fill-opacity:1;" d="M 677.304688 261.476562 L 600.679688 300.8125 C 599.0625 301.640625 597.507812 302.578125 596.015625 303.617188 C 594.527344 304.660156 593.113281 305.800781 591.78125 307.035156 C 590.445312 308.273438 589.203125 309.59375 588.050781 311 C 586.898438 312.40625 585.847656 313.886719 584.898438 315.4375 C 583.949219 316.988281 583.113281 318.597656 582.382812 320.261719 C 581.65625 321.929688 581.046875 323.636719 580.550781 325.386719 C 580.058594 327.136719 579.6875 328.914062 579.4375 330.714844 C 579.191406 332.515625 579.066406 334.324219 579.066406 336.140625 L 579.066406 431.6875 C 579.066406 433.5 579.1875 435.300781 579.433594 437.09375 C 579.683594 438.890625 580.050781 440.65625 580.542969 442.402344 C 581.03125 444.144531 581.636719 445.84375 582.359375 447.503906 C 583.085938 449.164062 583.917969 450.769531 584.863281 452.3125 C 585.804688 453.859375 586.851562 455.332031 587.996094 456.734375 C 589.140625 458.136719 590.378906 459.453125 591.703125 460.6875 C 593.03125 461.917969 594.4375 463.054688 595.917969 464.09375 C 597.402344 465.136719 598.949219 466.070312 600.558594 466.898438 L 677.304688 506.355469 C 677.914062 506.667969 678.53125 506.960938 679.15625 507.234375 C 679.78125 507.507812 680.414062 507.761719 681.058594 507.992188 C 681.699219 508.226562 682.347656 508.4375 683.003906 508.628906 C 683.660156 508.820312 684.320312 508.992188 684.988281 509.140625 C 685.652344 509.292969 686.324219 509.417969 686.996094 509.527344 C 687.671875 509.632812 688.351562 509.71875 689.03125 509.78125 C 689.710938 509.84375 690.390625 509.886719 691.074219 509.90625 C 691.757812 509.925781 692.441406 509.921875 693.121094 509.898438 C 693.804688 509.875 694.484375 509.828125 695.164062 509.761719 C 695.84375 509.695312 696.523438 509.605469 697.195312 509.496094 C 697.871094 509.382812 698.539062 509.253906 699.203125 509.097656 C 699.871094 508.945312 700.53125 508.769531 701.183594 508.574219 C 701.839844 508.378906 702.488281 508.164062 703.128906 507.925781 C 703.769531 507.6875 704.398438 507.433594 705.023438 507.15625 C 705.648438 506.875 706.261719 506.578125 706.867188 506.261719 C 707.472656 505.945312 708.066406 505.609375 708.652344 505.257812 C 709.234375 504.902344 709.804688 504.527344 710.367188 504.136719 C 710.925781 503.746094 711.472656 503.335938 712.007812 502.910156 C 712.539062 502.484375 713.058594 502.042969 713.566406 501.582031 C 714.070312 501.125 714.5625 500.648438 715.035156 500.160156 C 715.511719 499.667969 715.96875 499.164062 716.414062 498.644531 C 716.855469 498.121094 717.28125 497.589844 717.6875 497.042969 C 718.097656 496.496094 718.488281 495.933594 718.859375 495.363281 C 719.234375 494.792969 719.589844 494.207031 719.921875 493.613281 C 720.257812 493.019531 720.574219 492.414062 720.871094 491.796875 C 721.167969 491.183594 721.445312 490.558594 721.703125 489.925781 C 721.960938 489.292969 722.195312 488.652344 722.414062 488.007812 C 722.628906 487.359375 722.824219 486.703125 723 486.042969 C 723.171875 485.382812 723.324219 484.71875 723.457031 484.050781 C 723.589844 483.378906 723.699219 482.707031 723.789062 482.027344 C 723.875 481.351562 723.945312 480.671875 723.988281 479.992188 C 724.035156 479.308594 724.058594 478.628906 724.058594 477.945312 L 724.058594 290.007812 C 724.054688 289.324219 724.03125 288.644531 723.984375 287.960938 C 723.9375 287.28125 723.871094 286.601562 723.777344 285.925781 C 723.6875 285.25 723.578125 284.578125 723.445312 283.90625 C 723.3125 283.238281 723.160156 282.574219 722.984375 281.914062 C 722.808594 281.253906 722.613281 280.601562 722.394531 279.953125 C 722.179688 279.304688 721.941406 278.664062 721.683594 278.035156 C 721.429688 277.402344 721.152344 276.777344 720.855469 276.164062 C 720.554688 275.550781 720.238281 274.945312 719.90625 274.351562 C 719.570312 273.753906 719.214844 273.171875 718.84375 272.601562 C 718.46875 272.027344 718.078125 271.46875 717.671875 270.921875 C 717.261719 270.375 716.835938 269.839844 716.394531 269.320312 C 715.953125 268.800781 715.496094 268.296875 715.019531 267.804688 C 714.546875 267.316406 714.054688 266.839844 713.550781 266.378906 C 713.046875 265.921875 712.527344 265.476562 711.996094 265.050781 C 711.460938 264.625 710.917969 264.214844 710.359375 263.824219 C 709.796875 263.429688 709.226562 263.054688 708.644531 262.699219 C 708.0625 262.34375 707.46875 262.007812 706.863281 261.691406 C 706.261719 261.371094 705.648438 261.074219 705.023438 260.796875 C 704.402344 260.515625 703.769531 260.257812 703.128906 260.019531 C 702.488281 259.78125 701.84375 259.5625 701.191406 259.367188 C 700.535156 259.167969 699.878906 258.992188 699.210938 258.835938 C 698.546875 258.679688 697.878906 258.546875 697.207031 258.433594 C 696.53125 258.320312 695.855469 258.230469 695.175781 258.160156 C 694.496094 258.089844 693.816406 258.039062 693.136719 258.015625 C 692.453125 257.988281 691.769531 257.980469 691.085938 258 C 690.40625 258.015625 689.722656 258.054688 689.042969 258.113281 C 688.363281 258.175781 687.6875 258.257812 687.011719 258.359375 C 686.335938 258.460938 685.664062 258.585938 685 258.734375 C 684.332031 258.878906 683.671875 259.046875 683.015625 259.234375 C 682.359375 259.421875 681.707031 259.632812 681.066406 259.859375 C 680.421875 260.089844 679.789062 260.339844 679.160156 260.609375 C 678.53125 260.878906 677.914062 261.167969 677.304688 261.476562 Z M 677.304688 261.476562 "/>
</g>
<path style=" stroke:none;fill-rule:nonzero;fill:rgb(100%,100%,100%);fill-opacity:1;" d="M 662.007812 72.417969 C 660.015625 72.480469 658.046875 72.726562 656.101562 73.167969 C 654.15625 73.605469 652.273438 74.226562 650.449219 75.03125 C 648.625 75.835938 646.894531 76.804688 645.257812 77.941406 C 643.621094 79.082031 642.105469 80.363281 640.71875 81.792969 L 83.34375 639.167969 C 82.601562 639.882812 81.898438 640.628906 81.230469 641.410156 C 80.5625 642.191406 79.9375 643.003906 79.351562 643.847656 C 78.765625 644.691406 78.222656 645.5625 77.722656 646.460938 C 77.222656 647.359375 76.769531 648.28125 76.363281 649.222656 C 75.957031 650.164062 75.59375 651.125 75.285156 652.105469 C 74.972656 653.085938 74.710938 654.078125 74.496094 655.082031 C 74.28125 656.085938 74.121094 657.097656 74.007812 658.121094 C 73.894531 659.140625 73.832031 660.167969 73.824219 661.195312 C 73.8125 662.222656 73.851562 663.246094 73.945312 664.269531 C 74.035156 665.292969 74.179688 666.308594 74.371094 667.316406 C 74.5625 668.328125 74.804688 669.324219 75.097656 670.308594 C 75.390625 671.292969 75.730469 672.261719 76.117188 673.214844 C 76.507812 674.164062 76.941406 675.09375 77.421875 676.003906 C 77.902344 676.910156 78.429688 677.792969 78.996094 678.648438 C 79.566406 679.503906 80.175781 680.328125 80.828125 681.125 C 81.476562 681.917969 82.164062 682.679688 82.890625 683.40625 C 83.617188 684.132812 84.378906 684.820312 85.175781 685.472656 C 85.96875 686.125 86.792969 686.734375 87.652344 687.300781 C 88.507812 687.871094 89.386719 688.394531 90.296875 688.875 C 91.203125 689.355469 92.132812 689.792969 93.085938 690.179688 C 94.035156 690.566406 95.003906 690.90625 95.988281 691.199219 C 96.972656 691.492188 97.972656 691.734375 98.980469 691.925781 C 99.988281 692.121094 101.003906 692.261719 102.027344 692.355469 C 103.050781 692.445312 104.078125 692.484375 105.105469 692.476562 C 106.132812 692.464844 107.15625 692.402344 108.179688 692.292969 C 109.199219 692.179688 110.210938 692.015625 111.21875 691.800781 C 112.222656 691.589844 113.214844 691.328125 114.191406 691.015625 C 115.171875 690.703125 116.132812 690.34375 117.074219 689.933594 C 118.019531 689.527344 118.941406 689.074219 119.835938 688.574219 C 120.734375 688.074219 121.605469 687.535156 122.449219 686.949219 C 123.292969 686.363281 124.105469 685.734375 124.890625 685.070312 C 125.671875 684.402344 126.417969 683.699219 127.128906 682.957031 L 684.503906 125.582031 C 685.617188 124.5 686.644531 123.339844 687.582031 122.105469 C 688.519531 120.871094 689.359375 119.570312 690.101562 118.210938 C 690.847656 116.847656 691.484375 115.4375 692.015625 113.980469 C 692.546875 112.523438 692.964844 111.035156 693.273438 109.515625 C 693.582031 107.996094 693.773438 106.460938 693.851562 104.910156 C 693.925781 103.359375 693.886719 101.816406 693.730469 100.269531 C 693.578125 98.726562 693.308594 97.203125 692.921875 95.703125 C 692.539062 94.199219 692.042969 92.734375 691.4375 91.304688 C 690.835938 89.875 690.125 88.5 689.316406 87.179688 C 688.503906 85.855469 687.597656 84.601562 686.597656 83.414062 C 685.597656 82.230469 684.515625 81.125 683.351562 80.101562 C 682.183594 79.078125 680.949219 78.148438 679.644531 77.308594 C 678.339844 76.472656 676.976562 75.738281 675.5625 75.105469 C 674.144531 74.46875 672.691406 73.945312 671.195312 73.53125 C 669.699219 73.117188 668.183594 72.816406 666.640625 72.628906 C 665.101562 72.445312 663.558594 72.375 662.007812 72.417969 Z M 662.007812 72.417969 "/>
</g>
</svg>
