<svg xmlns="http://www.w3.org/2000/svg"  data-name="Layer 1" viewBox="0 0 64 64"><path fill="#3b3c3d" d="M14.63,54.2787c-.13.16-.26.31-.38.49l.82.58a.1374.1374,0,0,1,.03-.04.01.01,0,0,1,.01-.01A2.8211,2.8211,0,0,0,14.63,54.2787Zm-1.13,4.36a.75.75,0,0,1,.11.04,2.7871,2.7871,0,0,0,.88-.72,4.3732,4.3732,0,0,0-.68-.27Zm-3.59-.68a3.0277,3.0277,0,0,0,.88.72.4914.4914,0,0,1,.13-.04l-.31-.95A3.9077,3.9077,0,0,0,9.91,57.9587Zm.74-3.88a3.9052,3.9052,0,0,0-.37-.34,2.945,2.945,0,0,0-.65.76,4.0028,4.0028,0,0,1,.32.28Z"/><path fill="#3b3c3d" d="M15.21,56.0387a2.9231,2.9231,0,0,1-.72,1.92,4.3732,4.3732,0,0,0-.68-.27l-.31.95a.75.75,0,0,1,.11.04,2.9418,2.9418,0,0,1-2.82,0,.4914.4914,0,0,1,.13-.04l-.31-.95a3.9077,3.9077,0,0,0-.7.27,2.9059,2.9059,0,0,1-.7-1.92,2.961,2.961,0,0,1,.42-1.54,4.0028,4.0028,0,0,1,.32.28l.7-.7a3.9052,3.9052,0,0,0-.37-.34,2.9129,2.9129,0,0,1,1.93-.7,2.9872,2.9872,0,0,1,2.42,1.24c-.13.16-.26.31-.38.49l.82.58a.1374.1374,0,0,1,.03-.04.01.01,0,0,1,.01-.01A2.9372,2.9372,0,0,1,15.21,56.0387Z"/><path fill="#3b3c3d" d="M10.92 58.6387a.4914.4914 0 0 0-.13.04 4.5961 4.5961 0 0 0-3.08 4.36h-1a5.6065 5.6065 0 0 1 3.2-5.08 3.9077 3.9077 0 0 1 .7-.27zM17.71 63.0387h-1a4.5725 4.5725 0 0 0-3.1-4.36.75.75 0 0 0-.11-.04l.31-.95a4.3732 4.3732 0 0 1 .68.27A5.6075 5.6075 0 0 1 17.71 63.0387zM27.63 54.2787c-.13.16-.26.31-.38.49l.82.58a.1374.1374 0 0 1 .03-.04.01.01 0 0 1 .01-.01A2.8211 2.8211 0 0 0 27.63 54.2787zm-1.13 4.36a.75.75 0 0 1 .11.04 2.7871 2.7871 0 0 0 .88-.72 4.3732 4.3732 0 0 0-.68-.27zm-3.59-.68a3.0277 3.0277 0 0 0 .88.72.4914.4914 0 0 1 .13-.04l-.31-.95A3.9077 3.9077 0 0 0 22.91 57.9587zm-.14-3.67a2.8345 2.8345 0 0 0-.47 1.01.1182.1182 0 0 1 .05.05l.81-.58A4.7934 4.7934 0 0 0 22.77 54.2887z"/><path fill="#3b3c3d" d="M28.21,56.0387a2.9231,2.9231,0,0,1-.72,1.92,4.3732,4.3732,0,0,0-.68-.27l-.31.95a.75.75,0,0,1,.11.04,2.9418,2.9418,0,0,1-2.82,0,.4914.4914,0,0,1,.13-.04l-.31-.95a3.9077,3.9077,0,0,0-.7.27,2.9059,2.9059,0,0,1-.7-1.92,2.9407,2.9407,0,0,1,.09-.74.1182.1182,0,0,1,.05.05l.81-.58a4.7934,4.7934,0,0,0-.39-.48,2.994,2.994,0,0,1,4.86-.01c-.13.16-.26.31-.38.49l.82.58a.1374.1374,0,0,1,.03-.04.01.01,0,0,1,.01-.01A2.9372,2.9372,0,0,1,28.21,56.0387Z"/><path fill="#3b3c3d" d="M23.92 58.6387a.4914.4914 0 0 0-.13.04 4.5961 4.5961 0 0 0-3.08 4.36h-1a5.6065 5.6065 0 0 1 3.2-5.08 3.9077 3.9077 0 0 1 .7-.27zM30.71 63.0387h-1a4.5725 4.5725 0 0 0-3.1-4.36.75.75 0 0 0-.11-.04l.31-.95a4.3732 4.3732 0 0 1 .68.27A5.6075 5.6075 0 0 1 30.71 63.0387zM20.31 52.6888l-.31.95a.75.75 0 0 1 .11.04 2.7871 2.7871 0 0 0 .88-.72A4.3732 4.3732 0 0 0 20.31 52.6888zm-3.9.27a3.0277 3.0277 0 0 0 .88.72.4914.4914 0 0 1 .13-.04l-.31-.95A3.9077 3.9077 0 0 0 16.41 52.9587z"/><path fill="#3b3c3d" d="M21.71,51.0387a2.9231,2.9231,0,0,1-.72,1.92,4.3732,4.3732,0,0,0-.68-.27l-.31.95a.75.75,0,0,1,.11.04,2.9418,2.9418,0,0,1-2.82,0,.4914.4914,0,0,1,.13-.04l-.31-.95a3.9077,3.9077,0,0,0-.7.27,2.9059,2.9059,0,0,1-.7-1.92,3,3,0,0,1,6,0Z"/><path fill="#3b3c3d" d="M17.41 53.6288a.9027.9027 0 0 0-.13.04 4.3409 4.3409 0 0 0-2.17 1.63.01.01 0 0 0-.01.01.1374.1374 0 0 0-.03.04l-.82-.58c.12-.18.25-.33.38-.49a5.4359 5.4359 0 0 1 1.78-1.33 3.783 3.783 0 0 1 .69-.26zM23.16 54.7687l-.81.58a.1182.1182 0 0 0-.05-.05l-.01-.01a4.3448 4.3448 0 0 0-2.19-1.62.41.41 0 0 0-.1-.04l.31-.94a4.2157 4.2157 0 0 1 .67.26 5.2094 5.2094 0 0 1 1.79 1.33v.01A4.7934 4.7934 0 0 1 23.16 54.7687zM33.98 52.9487a4.2157 4.2157 0 0 0-.67-.26l-.31.94a.41.41 0 0 1 .1.04.031.031 0 0 1 .02.01 2.7725 2.7725 0 0 0 .87-.72zm-4.57.01a3.0277 3.0277 0 0 0 .88.72.4914.4914 0 0 1 .13-.04l-.31-.95A3.9077 3.9077 0 0 0 29.41 52.9587z"/><path fill="#3b3c3d" d="M34.71,51.0387a2.9231,2.9231,0,0,1-.72,1.92l-.01-.01a4.2157,4.2157,0,0,0-.67-.26l-.31.94a.41.41,0,0,1,.1.04.031.031,0,0,1,.02.01,3.0747,3.0747,0,0,1-1.41.36,2.9362,2.9362,0,0,1-1.42-.36.4914.4914,0,0,1,.13-.04l-.31-.95a3.9077,3.9077,0,0,0-.7.27,2.9059,2.9059,0,0,1-.7-1.92,3,3,0,0,1,6,0Z"/><path fill="#3b3c3d" d="M30.41 53.6288a.9027.9027 0 0 0-.13.04 4.3409 4.3409 0 0 0-2.17 1.63.01.01 0 0 0-.01.01.1374.1374 0 0 0-.03.04l-.82-.58c.12-.18.25-.33.38-.49a5.4359 5.4359 0 0 1 1.78-1.33 3.783 3.783 0 0 1 .69-.26zM36.16 54.7687l-.81.58a.174.174 0 0 0-.06-.06 4.2621 4.2621 0 0 0-2.17-1.61.031.031 0 0 0-.02-.01.41.41 0 0 0-.1-.04l.31-.94a4.2157 4.2157 0 0 1 .67.26l.01.01a5.1127 5.1127 0 0 1 1.78 1.32C35.91 54.4388 36.03 54.5887 36.16 54.7687zM46.98 52.9487l-.01-.01a3.7323 3.7323 0 0 0-.66-.25l-.31.94a.1928.1928 0 0 1 .1.03l.02.01h.01a2.8185 2.8185 0 0 0 .86-.71zm-4.57.01a3.0277 3.0277 0 0 0 .88.72.4914.4914 0 0 1 .13-.04l-.31-.95A3.9077 3.9077 0 0 0 42.41 52.9587z"/><path fill="#3b3c3d" d="M47.71,51.0387a2.9231,2.9231,0,0,1-.72,1.92l-.01-.01-.01-.01a3.7323,3.7323,0,0,0-.66-.25l-.31.94a.1928.1928,0,0,1,.1.03l.02.01a2.9259,2.9259,0,0,1-2.83.01.4914.4914,0,0,1,.13-.04l-.31-.95a3.9077,3.9077,0,0,0-.7.27,2.9059,2.9059,0,0,1-.7-1.92,3,3,0,0,1,6,0Z"/><path fill="#3b3c3d" d="M43.41 53.6288a.9027.9027 0 0 0-.13.04 4.3409 4.3409 0 0 0-2.17 1.63.01.01 0 0 0-.01.01.1374.1374 0 0 0-.03.04l-.82-.58c.12-.18.25-.33.38-.49a5.4359 5.4359 0 0 1 1.78-1.33 3.783 3.783 0 0 1 .69-.26zM49.16 54.7588l-.81.58a.5216.5216 0 0 0-.07-.06 4.213 4.213 0 0 0-2.15-1.61h-.01l-.02-.01a.1928.1928 0 0 0-.1-.03l.31-.94a3.7323 3.7323 0 0 1 .66.25l.01.01.01.01a5.0848 5.0848 0 0 1 1.78 1.31C48.91 54.4388 49.03 54.5787 49.16 54.7588z"/><path fill="#3b3c3d" d="M40.63,54.2787c-.13.16-.26.31-.38.49l.82.58a.1374.1374,0,0,1,.03-.04.01.01,0,0,1,.01-.01A2.8211,2.8211,0,0,0,40.63,54.2787Zm-1.13,4.36a.75.75,0,0,1,.11.04,2.7871,2.7871,0,0,0,.88-.72,4.3732,4.3732,0,0,0-.68-.27Zm-3.59-.68a3.0277,3.0277,0,0,0,.88.72.4914.4914,0,0,1,.13-.04l-.31-.95A3.9077,3.9077,0,0,0,35.91,57.9587Zm-.14-3.67a2.8345,2.8345,0,0,0-.47,1.01c.02.01.03.03.05.06l.81-.58A3.8207,3.8207,0,0,0,35.77,54.2887Z"/><path fill="#3b3c3d" d="M41.21,56.0387a2.9231,2.9231,0,0,1-.72,1.92,4.3732,4.3732,0,0,0-.68-.27l-.31.95a.75.75,0,0,1,.11.04,2.9418,2.9418,0,0,1-2.82,0,.4914.4914,0,0,1,.13-.04l-.31-.95a3.9077,3.9077,0,0,0-.7.27,2.9059,2.9059,0,0,1-.7-1.92,2.9407,2.9407,0,0,1,.09-.74c.02.01.03.03.05.06l.81-.58a3.8207,3.8207,0,0,0-.39-.49,2.994,2.994,0,0,1,4.86-.01c-.13.16-.26.31-.38.49l.82.58a.1374.1374,0,0,1,.03-.04.01.01,0,0,1,.01-.01A2.9372,2.9372,0,0,1,41.21,56.0387Z"/><path fill="#3b3c3d" d="M36.92 58.6387a.4914.4914 0 0 0-.13.04 4.5961 4.5961 0 0 0-3.08 4.36h-1a5.6065 5.6065 0 0 1 3.2-5.08 3.9077 3.9077 0 0 1 .7-.27zM43.71 63.0387h-1a4.5725 4.5725 0 0 0-3.1-4.36.75.75 0 0 0-.11-.04l.31-.95a4.3732 4.3732 0 0 1 .68.27A5.6075 5.6075 0 0 1 43.71 63.0387zM48.77 54.2787a2.8551 2.8551 0 0 0-.48 1.01.174.174 0 0 1 .06.06l.81-.58C49.03 54.5887 48.91 54.4388 48.77 54.2787zm.83 3.41a3.783 3.783 0 0 0-.69.26 2.8139 2.8139 0 0 0 .87.72.9027.9027 0 0 1 .13-.04zm3.21 0l-.31.94a.41.41 0 0 1 .1.04 2.3715 2.3715 0 0 0 .88-.72A4.2157 4.2157 0 0 0 52.81 57.6888zm1.15-2.85a2.8214 2.8214 0 0 0-.56-.83 4.571 4.571 0 0 0-.43.45l.78.64a1.652 1.652 0 0 1 .22-.25z"/><path fill="#3b3c3d" d="M54.21,56.0287a2.862,2.862,0,0,1-.73,1.92,4.2157,4.2157,0,0,0-.67-.26l-.31.94a.41.41,0,0,1,.1.04,2.8489,2.8489,0,0,1-1.39.36,3.0047,3.0047,0,0,1-1.43-.36.9027.9027,0,0,1,.13-.04l-.31-.94a3.783,3.783,0,0,0-.69.26,2.8867,2.8867,0,0,1-.7-1.92,2.9471,2.9471,0,0,1,.08-.74.174.174,0,0,1,.06.06l.81-.58c-.13-.18-.25-.33-.39-.49a3.0066,3.0066,0,0,1,2.44-1.25,2.9353,2.9353,0,0,1,2.19.98,4.571,4.571,0,0,0-.43.45l.78.64a1.652,1.652,0,0,1,.22-.25A3.07,3.07,0,0,1,54.21,56.0287Z"/><path fill="#3b3c3d" d="M49.91 58.6288a.9027.9027 0 0 0-.13.04 4.61 4.61 0 0 0-3.07 4.36h-1a5.6174 5.6174 0 0 1 3.2-5.08 3.783 3.783 0 0 1 .69-.26zM56.71 63.0287h-1a4.5776 4.5776 0 0 0-3.11-4.36.41.41 0 0 0-.1-.04l.31-.94a4.2157 4.2157 0 0 1 .67.26A5.61 5.61 0 0 1 56.71 63.0287zM58.81 52.6888l-.31.95a.1607.1607 0 0 1 .09.03h.01a2.3715 2.3715 0 0 0 .88-.72A5.4561 5.4561 0 0 0 58.81 52.6888zm-3.9.27a2.8133 2.8133 0 0 0 .88.71.031.031 0 0 1 .02.01.3557.3557 0 0 1 .11-.04l-.31-.95A4.2227 4.2227 0 0 0 54.91 52.9587z"/><path fill="#3b3c3d" d="M55.91 53.6288a.1928.1928 0 0 0-.1.03.01.01 0 0 0-.01.01 4.305 4.305 0 0 0-1.83 1.17h-.01l.01.01a1.652 1.652 0 0 0-.22.25l-.78-.64a4.571 4.571 0 0 1 .43-.45 5.3288 5.3288 0 0 1 1.5-1.07h.01a2.0167 2.0167 0 0 1 .34-.14 3.5531 3.5531 0 0 1 .35-.11zM62.71 58.0387h-1a4.6036 4.6036 0 0 0-3.11-4.37h-.01a.1607.1607 0 0 0-.09-.03l.31-.95a5.4561 5.4561 0 0 1 .67.26A5.6032 5.6032 0 0 1 62.71 58.0387zM5.19 52.6888a4.44 4.44 0 0 0-.72.27 2.9161 2.9161 0 0 0 .9.71.4877.4877 0 0 1 .13-.04zm2.46-4.53a2.5174 2.5174 0 0 0-.87-.13H6.7l.02.1a.1847.1847 0 0 0 .05.12s-.01 0 0 .01a.0366.0366 0 0 0 .01.03l.01.01a.4913.4913 0 0 0 .42.23.4142.4142 0 0 0 .1-.01.4756.4756 0 0 0 .35-.36zm.73 4.53l-.3.94a.3029.3029 0 0 1 .11.03H8.2a2.4781 2.4781 0 0 0 .87-.71A4.1934 4.1934 0 0 0 8.38 52.6888z"/><path fill="#3b3c3d" d="M9.79,51.0387a2.9231,2.9231,0,0,1-.72,1.92,4.2679,4.2679,0,0,0-.69-.27l-.3.94c.02.01.07.02.11.04H8.2a2.9259,2.9259,0,0,1-2.83.01.4914.4914,0,0,1,.13-.04l-.31-.95a4.0428,4.0428,0,0,0-.71.28,3.0129,3.0129,0,0,1,2.22-4.93l.02.1a.501.501,0,0,0,.49.4.3751.3751,0,0,0,.1-.01.4882.4882,0,0,0,.36-.36A3.0162,3.0162,0,0,1,9.79,51.0387Z"/><path fill="#3b3c3d" d="M10.65 54.0688l-.7.7a3.5549 3.5549 0 0 0-.32-.27 4.313 4.313 0 0 0-1.43-.83H8.19c-.04-.02-.09-.03-.11-.04l.3-.94a4.2679 4.2679 0 0 1 .69.27 4.8561 4.8561 0 0 1 1.21.77A3.8931 3.8931 0 0 1 10.65 54.0688zM5.5 53.6387a.4914.4914 0 0 0-.13.04 4.5961 4.5961 0 0 0-3.08 4.36h-1a5.5827 5.5827 0 0 1 3.19-5.07 4.0428 4.0428 0 0 1 .71-.28zM11.71 38.1888l-.18 3.94a.9871.9871 0 0 1-.87.94l-3.59.5H6.83l.87 4.37a.2182.2182 0 0 1-.04.19H7.65v.01l.01.01c-.01 0-.01 0 0 .01H7.65a2.5174 2.5174 0 0 0-.87-.13H6.7v-.02l-.94-4.69-.68-.31a.375.375 0 0 1-.11-.01 1.7046 1.7046 0 0 1-1.09.75l-.49.07H3.32a.4893.4893 0 0 1-.49-.44.448.448 0 0 1 .43-.56l.49-.06a.5343.5343 0 0 0 .43-.57l-.04-.37-.08-.63-.03-.06-.25-1.94-.06-.5-1 .13a.4627.4627 0 0 1-.54-.44.5275.5275 0 0 1 .42-.56l1.28-.13.69-2.43a1.5331 1.5331 0 0 1 1.25-1.13l.83-.06a.464.464 0 0 1 .56.43l.32 2.44 2.47-.31h.31a1.3488 1.3488 0 0 1 1.03.5A1.58 1.58 0 0 1 11.71 38.1888zM61.71 44.2488a1.0255 1.0255 0 0 1-.82 1l-3.2.64a.5027.5027 0 0 1 .02.12v2c0 .01-.01.05 0 .06a3.0334 3.0334 0 0 1 2.5 2.96 2.862 2.862 0 0 1-.73 1.92 5.4561 5.4561 0 0 0-.67-.26l-.31.95a.1607.1607 0 0 1 .09.03 2.8393 2.8393 0 0 1-1.38.36 2.995 2.995 0 0 1-1.4-.35.3557.3557 0 0 1 .11-.04l-.31-.95a4.2227 4.2227 0 0 0-.7.27 3.0047 3.0047 0 0 1 1.8-4.89v-2.06c-.18-.05-.34-.07-.5-.13l-.88-.25c-.05-.05-.08-.06-.11-.06a1.529 1.529 0 0 1-1.03.81l-.49.13h-.1a.5508.5508 0 0 1-.5-.38.5072.5072 0 0 1 .4-.62l.47-.11a.4694.4694 0 0 0 .4-.58l-.09-.31-.12-.68c0-.01-.01-.07-.01-.08l-.39-1.87-.1-.5-.98.21a.4913.4913 0 1 1-.21-.96l1.25-.29.5-2.46a1.5342 1.5342 0 0 1 1.17-1.19l.82-.17a.5144.5144 0 0 1 .57.42l.53 2.44 2.44-.54a1.7289 1.7289 0 0 1 .32-.02 1.4893 1.4893 0 0 1 1.5 1.49z"/><path fill="#3b3c3d" d="M7.65 48.1587a1.8431 1.8431 0 0 1-.12.18c-.06.1-.14.12-.22.17h-.1a.5129.5129 0 0 1-.32-.13.2181.2181 0 0 1-.07-.06c-.02 0-.03-.01-.03-.02l-.01-.01v-.02l-.01-.01c-.01-.01 0-.01 0-.01a.13.13 0 0 1-.05-.12l-.02-.1h.08A2.5174 2.5174 0 0 1 7.65 48.1587zM11.2142 32.5455a.5017.5017 0 0 1-.23-.0566l-.6274-.3262a1.2075 1.2075 0 0 1-.5147-1.6279.207.207 0 0 0-.0884-.2783 1.21 1.21 0 0 1-.5151-1.6289.2072.2072 0 0 0-.0884-.2784 1.2072 1.2072 0 0 1-.5151-1.6279l.3257-.6269a.5.5 0 1 1 .8877.46l-.3262.6279a.2068.2068 0 0 0 .0884.2793 1.2073 1.2073 0 0 1 .5156 1.627.2076.2076 0 0 0 .0889.28 1.2089 1.2089 0 0 1 .5146 1.6269.2061.2061 0 0 0 .0879.2793l.6279.3262a.5.5 0 0 1-.2309.9443zM55.2147 32.6383a.5.5 0 0 1-.231-.9443l.6274-.3262A.2057.2057 0 0 0 55.7 31.09a1.2092 1.2092 0 0 1 .5151-1.628.2077.2077 0 0 0 .0884-.2793 1.209 1.209 0 0 1 .5152-1.6279.2061.2061 0 0 0 .0883-.2783.5.5 0 1 1 .8873-.4619 1.2073 1.2073 0 0 1-.5152 1.6279.2073.2073 0 0 0-.0879.2793 1.21 1.21 0 0 1-.5146 1.6279.2069.2069 0 0 0-.0889.2793 1.2072 1.2072 0 0 1-.5156 1.627l-.627.3262A.5029.5029 0 0 1 55.2147 32.6383zM47.2142 43.5445H17.2147a.5.5 0 1 1 0-.999H47.2142a.5.5 0 1 1 0 .999z"/><circle cx="32.69" cy="26.039" r="1.5" fill="#3b3c3d"/><path fill="#3b3c3d" d="M30.6946,30.5445a.5.5,0,0,1-.5-.5v-1.999a.5018.5018,0,0,1,.146-.3545l1-1a.5.5,0,0,1,.7076.708l-.8536.8536v1.7919A.5.5,0,0,1,30.6946,30.5445Z"/><path fill="#3b3c3d" d="M32.69,31.0387v1a.5.5,0,1,1-1,0v-1a.5015.5015,0,0,0-.5-.5h-3a.5015.5015,0,0,0-.5.5v1a.5.5,0,0,1-1,0v-1a1.498,1.498,0,0,1,1.5-1.5h3A1.498,1.498,0,0,1,32.69,31.0387Z"/><path fill="#3b3c3d" d="M35.69,32.0387v-.5h-11a1.5215,1.5215,0,0,0-1.14.51c.15.15.31.29.48.44a.4782.4782,0,0,1,.17.4.3289.3289,0,0,1,.07-.13.5082.5082,0,0,1,.42-.22h11.5A.4951.4951,0,0,1,35.69,32.0387Zm5.28.16a1.69,1.69,0,0,0-.11-.14,1.4754,1.4754,0,0,0-1.13-.52H24.69a1.5215,1.5215,0,0,0-1.14.51.8235.8235,0,0,0-.11.15,1.4012,1.4012,0,0,0-.26.88,1.2478,1.2478,0,0,0,.11.52l.95,2.37a2.4982,2.4982,0,0,0,2.32,1.57h11.3a2.5084,2.5084,0,0,0,2.32-1.57l.95-2.37a2.3843,2.3843,0,0,0,.1-.52A1.6171,1.6171,0,0,0,40.97,32.1987Zm-.77,1.03-.95,2.37a1.4984,1.4984,0,0,1-1.39.94H26.56a1.4984,1.4984,0,0,1-1.39-.94l-.95-2.37a.5024.5024,0,0,1-.02-.34.3289.3289,0,0,1,.07-.13.5082.5082,0,0,1,.42-.22H39.73a.5082.5082,0,0,1,.42.22A.5206.5206,0,0,1,40.2,33.2288Z"/><path fill="#3b3c3d" d="M27.2147 43.5445a.5.5 0 0 1-.5-.5v-5.999a.5.5 0 1 1 1 0v5.999A.5.5 0 0 1 27.2147 43.5445zM37.2147 43.5445a.5.5 0 0 1-.5-.5v-5.999a.5.5 0 1 1 .9995 0v5.999A.5.5 0 0 1 37.2147 43.5445zM35.5 4.0088l-1.56 1.13.6 1.84a.5082.5082 0 0 1-.18.56.5292.5292 0 0 1-.3.09.5212.5212 0 0 1-.29-.09l-1.56-1.14-1.56 1.14a.5.5 0 0 1-.77-.56l.6-1.84-1.56-1.13a.5084.5084 0 0 1-.19-.56.4953.4953 0 0 1 .48-.34h1.93l.59-1.84a.5207.5207 0 0 1 .95 0l.6 1.84h1.93a.4745.4745 0 0 1 .47.34A.4887.4887 0 0 1 35.5 4.0088zM23.52 7.9188l-1.56 1.13.59 1.84a.4931.4931 0 0 1-.18.56.52.52 0 0 1-.29.09.5283.5283 0 0 1-.3-.09l-1.56-1.14-1.56 1.14a.5027.5027 0 0 1-.77-.56l.6-1.84-1.56-1.13a.4886.4886 0 0 1-.18-.56.5012.5012 0 0 1 .47-.35h1.93l.6-1.83a.5206.5206 0 0 1 .95 0l.59 1.83h1.93a.5045.5045 0 0 1 .3.91zM47.49 7.9188l-1.56 1.13.59 1.84a.4981.4981 0 0 1-.76.56l-1.56-1.14-1.56 1.14a.528.528 0 0 1-.59 0 .4931.4931 0 0 1-.18-.56l.59-1.84-1.56-1.13a.5045.5045 0 0 1 .3-.91h1.92l.6-1.83a.5206.5206 0 0 1 .95 0l.6 1.83H47.2a.5046.5046 0 0 1 .29.91zM6.0858 21.0426a.5.5 0 0 1-.2305-.9443l.6274-.3252a.2084.2084 0 0 0 .0879-.28 1.2073 1.2073 0 0 1 .5156-1.627.2073.2073 0 0 0 .0879-.2793A1.207 1.207 0 0 1 7.69 15.96a.2085.2085 0 0 0 .0878-.28l-.3251-.626a.5.5 0 1 1 .8872-.4619l.3256.627a1.2116 1.2116 0 0 1-.5141 1.6289.2055.2055 0 0 0-.0894.2783 1.2087 1.2087 0 0 1-.5151 1.6279.2061.2061 0 0 0-.0884.2784 1.2116 1.2116 0 0 1-.5141 1.6289l-.6285.3252A.5009.5009 0 0 1 6.0858 21.0426zM55.3011 21.0426a.501.501 0 0 1-.23-.0566l-.6274-.3252a1.21 1.21 0 0 1-.5152-1.6289.2071.2071 0 0 0-.0884-.2784 1.2072 1.2072 0 0 1-.5151-1.6279.207.207 0 0 0-.0884-.2783 1.21 1.21 0 0 1-.5151-1.6289l.3257-.627a.5.5 0 1 1 .8872.4619l-.3257.627a.2073.2073 0 0 0 .0894.2793 1.2089 1.2089 0 0 1 .5146 1.6269.2061.2061 0 0 0 .0879.2793 1.2085 1.2085 0 0 1 .5156 1.627.2076.2076 0 0 0 .0889.28l.6265.3252a.5.5 0 0 1-.23.9443zM32.21 9.5387a13.5032 13.5032 0 0 0-9.03 23.54 1.4012 1.4012 0 0 1 .26-.88.8235.8235 0 0 1 .11-.15 1.5215 1.5215 0 0 1 1.14-.51h2v-.5a1.498 1.498 0 0 1 1.5-1.5v-3.06a.5229.5229 0 0 0-.16-.37l-5.1-4.7a1.8955 1.8955 0 0 1-.61-1.37 1.855 1.855 0 0 1 .56-1.39 1.9154 1.9154 0 0 1 2.65-.06l3.98 3.69a1.0141 1.0141 0 0 0 .68.26h4.38a1.0514 1.0514 0 0 0 .71-.29l3.56-3.56a1.9379 1.9379 0 0 1 2.7 0 1.9071 1.9071 0 0 1 0 2.7l-4.7 4.71a.4911.4911 0 0 0-.15.36v5.08h3.04a1.4754 1.4754 0 0 1 1.13.52 1.69 1.69 0 0 1 .11.14 1.6171 1.6171 0 0 1 .26.88 13.497 13.497 0 0 0-9.02-23.54zm0 12a3.5 3.5 0 1 1 3.5-3.5A3.5038 3.5038 0 0 1 32.21 21.5387z"/><path fill="#3b3c3d" d="M24.03 32.4888a.4782.4782 0 0 1 .17.4.6287.6287 0 0 1-.12.31.5051.5051 0 0 1-.71.05c-.07-.06-.13-.12-.19-.17a1.4012 1.4012 0 0 1 .26-.88.8235.8235 0 0 1 .11-.15C23.7 32.1987 23.86 32.3387 24.03 32.4888zM41.23 33.0787c-.06.05-.12.11-.18.17a.5375.5375 0 0 1-.33.12.5163.5163 0 0 1-.38-.17.5049.5049 0 0 1 .05-.71c.16-.14.31-.29.47-.43a1.69 1.69 0 0 1 .11.14A1.6171 1.6171 0 0 1 41.23 33.0787z"/></svg>