<?xml version="1.0" encoding="UTF-8"?><!DOCTYPE svg PUBLIC "-//W3C//DTD SVG 1.1//EN" "http://www.w3.org/Graphics/SVG/1.1/DTD/svg11.dtd"><svg xmlns="http://www.w3.org/2000/svg" xmlns:xlink="http://www.w3.org/1999/xlink" version="1.1" id="Layer_1" x="0px" y="0px" viewBox="0 0 48 48" xml:space="preserve" fill="#000"><path d="M18 12h-3a3 3 0 0 0-3 3v18a3 3 0 0 0 3 3h3a3 3 0 0 0 3-3V15a3 3 0 0 0-3-3zm0 21h-3V15h3v18zM39 0H9a9 9 0 0 0-9 9v30a9 9 0 0 0 9 9h30c4.968 0 9-4.029 9-9V9c0-4.971-4.032-9-9-9zm3 39c0 1.659-1.341 3-3 3H9a3 3 0 0 1-3-3V9a3 3 0 0 1 3-3h30c1.659 0 3 1.341 3 3v30zm-9-27h-3c-1.659 0-3 1.341-3 3v6c0 1.659 1.341 3 3 3h3c1.659 0 3-1.341 3-3v-6c0-1.659-1.341-3-3-3zm0 9h-3v-6h3v6z"/><metadata><rdf:RDF xmlns:rdf="http://www.w3.org/1999/02/22-rdf-syntax-ns#" xmlns:rdfs="http://www.w3.org/2000/01/rdf-schema#" xmlns:dc="http://purl.org/dc/elements/1.1/"><rdf:Description about="https://iconscout.com/legal#licenses" dc:title="align,top" dc:description="align,top" dc:publisher="Iconscout" dc:date="2017-09-24" dc:format="image/svg+xml" dc:language="en"><dc:creator><rdf:Bag><rdf:li>Adam</rdf:li></rdf:Bag></dc:creator></rdf:Description></rdf:RDF></metadata></svg>