<?xml version="1.0" encoding="UTF-8"?>
<svg xmlns="http://www.w3.org/2000/svg" xmlns:xlink="http://www.w3.org/1999/xlink" width="768pt" height="767.999994pt" viewBox="0 0 768 767.999994" version="1.2">
<defs>
<clipPath id="clip1">
  <path d="M 1 155 L 768 155 L 768 614.851562 L 1 614.851562 Z M 1 155 "/>
</clipPath>
<clipPath id="clip2">
  <path d="M 150.753906 256 L 407.628906 256 L 407.628906 512.875 L 150.753906 512.875 Z M 150.753906 256 "/>
</clipPath>
</defs>
<g id="surface1">
<g clip-path="url(#clip1)" clip-rule="nonzero">
<path style=" stroke:none;fill-rule:nonzero;fill:rgb(100%,100%,100%);fill-opacity:1;" d="M 758.007812 156.296875 C 752.261719 153.9375 745.6875 155.238281 741.304688 159.621094 L 552.933594 348 L 552.933594 170.457031 C 552.933594 161.996094 546.085938 155.132812 537.609375 155.132812 L 16.609375 155.132812 C 8.152344 155.132812 1.285156 161.996094 1.285156 170.457031 L 1.285156 599.527344 C 1.285156 608 8.152344 614.851562 16.609375 614.851562 L 537.609375 614.851562 C 546.085938 614.851562 552.933594 608 552.933594 599.527344 L 552.933594 421.984375 L 741.304688 610.359375 C 744.234375 613.285156 748.15625 614.851562 752.140625 614.851562 C 754.117188 614.851562 756.109375 614.480469 758.007812 613.683594 C 763.738281 611.324219 767.464844 605.71875 767.464844 599.527344 L 767.464844 170.457031 C 767.464844 164.265625 763.738281 158.671875 758.007812 156.296875 Z M 522.285156 584.203125 L 31.933594 584.203125 L 31.933594 185.78125 L 522.285156 185.78125 Z M 736.816406 562.535156 L 559.277344 384.992188 L 736.816406 207.449219 Z M 736.816406 562.535156 "/>
</g>
<path style=" stroke:none;fill-rule:nonzero;fill:rgb(100%,100%,100%);fill-opacity:1;" d="M 169.84375 277.722656 L 108.550781 277.722656 C 100.09375 277.722656 93.226562 284.589844 93.226562 293.046875 C 93.226562 301.507812 100.09375 308.371094 108.550781 308.371094 L 169.84375 308.371094 C 178.304688 308.371094 185.167969 301.507812 185.167969 293.046875 C 185.167969 284.589844 178.304688 277.722656 169.84375 277.722656 Z M 169.84375 277.722656 "/>
<g clip-path="url(#clip2)" clip-rule="nonzero">
<path style=" stroke:none;fill-rule:nonzero;fill:rgb(100%,100%,100%);fill-opacity:1;" d="M 391.714844 368.523438 L 295.109375 368.519531 L 295.109375 271.914062 C 295.109375 263.125 287.984375 256 279.195312 256 C 270.402344 256 263.28125 263.125 263.28125 271.914062 L 263.277344 368.519531 L 166.667969 368.523438 C 157.882812 368.519531 150.753906 375.648438 150.753906 384.4375 C 150.753906 393.222656 157.882812 400.351562 166.667969 400.351562 L 263.277344 400.351562 L 263.28125 496.964844 C 263.277344 505.746094 270.410156 512.875 279.191406 512.875 C 287.980469 512.875 295.109375 505.746094 295.109375 496.960938 L 295.109375 400.351562 L 391.714844 400.351562 C 400.507812 400.351562 407.628906 393.222656 407.628906 384.4375 C 407.628906 375.652344 400.507812 368.523438 391.714844 368.523438 Z M 391.714844 368.523438 "/>
</g>
</g>
</svg>
