<svg xmlns="http://www.w3.org/2000/svg" viewBox="0 0 64 64"><path d="M56.778 38.808a1 1 0 0 0 0 1.414 11.012 11.012 0 0 1 0 15.556 1 1 0 1 0 1.414 1.414 13.013 13.013 0 0 0 0-18.384A1 1 0 0 0 56.778 38.808zM52.536 44.464a1 1 0 0 0-1.414 1.414 3 3 0 0 1 0 4.244 1 1 0 1 0 1.414 1.414A5.008 5.008 0 0 0 52.536 44.464z"/><path d="M55.364 41.636A1 1 0 0 0 53.95 43.05a7.009 7.009 0 0 1 0 9.9 1 1 0 1 0 1.414 1.414A9.01 9.01 0 0 0 55.364 41.636zM34.553 25.9l4.459 2.229-1.567 1.044a1 1 0 0 0 1.11 1.664l3-2a1 1 0 0 0-.108-1.727l-6-3a1 1 0 0 0-.894 1.79z"/><path d="M59,2H25a3.009,3.009,0,0,0-3,3V6.12A21.981,21.981,0,0,0,9.18,44.26a8.956,8.956,0,0,1,2.83,7.96l-1.98,8.55A1,1,0,0,0,11,62H33a1,1,0,0,0,.96-.73L35.75,55H42a3.009,3.009,0,0,0,3-3V49a1,1,0,0,0-1-1H37.62l-1-2H44a1,1,0,0,0,1-1V43h3.56a2,2,0,0,0,1.88-2.68C48.79,35.76,46.32,28.86,46,27.86A21.79,21.79,0,0,0,45.15,22H50v4a.987.987,0,0,0,.62.92A.838.838,0,0,0,51,27a1.007,1.007,0,0,0,.71-.29L56.41,22H59a3.009,3.009,0,0,0,3-3V5A3.009,3.009,0,0,0,59,2ZM48.56,41H44a1,1,0,0,0-1,1v2H35a1,1,0,0,0-.89,1.45l2,4A.977.977,0,0,0,37,50h6v2a1,1,0,0,1-1,1H28.66a3,3,0,0,1-2.12-.88l-1.83-1.83a1,1,0,0,0-1.42,1.42l1.83,1.83A4.994,4.994,0,0,0,28.66,55h5.01l-1.42,5H12.26l1.71-7.39a10.954,10.954,0,0,0-3.45-9.83A19.992,19.992,0,0,1,22,8.12V19a3.009,3.009,0,0,0,3,3H43.06A19.986,19.986,0,0,1,44,28.05C44.01,28.22,44.02,28.44,48.56,41ZM60,19a1,1,0,0,1-1,1H56a1.033,1.033,0,0,0-.71.29L52,23.59V21a1,1,0,0,0-1-1H25a1,1,0,0,1-1-1V5a1,1,0,0,1,1-1H59a1,1,0,0,1,1,1Z"/><path d="M27 10a1 1 0 0 0-1 1v2a1 1 0 0 0 2 0V11A1 1 0 0 0 27 10zM30 9a1 1 0 0 0-1 1v4a1 1 0 0 0 2 0V10A1 1 0 0 0 30 9zM39 10a1 1 0 0 0-1 1v2a1 1 0 0 0 2 0V11A1 1 0 0 0 39 10zM42 11a1 1 0 0 0-1 1v1a1 1 0 0 0 2 0V12A1 1 0 0 0 42 11zM36 9a1 1 0 0 0-1 1v4a1 1 0 0 0 2 0V10A1 1 0 0 0 36 9zM33 7a1 1 0 0 0-1 1v8a1 1 0 0 0 2 0V8A1 1 0 0 0 33 7zM57 10a1 1 0 0 0-1 1v2a1 1 0 0 0 2 0V11A1 1 0 0 0 57 10zM54 9a1 1 0 0 0-1 1v4a1 1 0 0 0 2 0V10A1 1 0 0 0 54 9zM45 9a1 1 0 0 0-1 1v4a1 1 0 0 0 2 0V10A1 1 0 0 0 45 9zM48 8a1 1 0 0 0-1 1v6a1 1 0 0 0 2 0V9A1 1 0 0 0 48 8zM51 6a1 1 0 0 0-1 1V17a1 1 0 0 0 2 0V7A1 1 0 0 0 51 6zM18.648 12.153q-.538.2-1.061.44a1 1 0 0 0 .826 1.821c.307-.139.621-.269.939-.389a1 1 0 1 0-.7-1.872zM14.411 14.443A18.07 18.07 0 0 0 7 29a1 1 0 0 0 2 0 16.063 16.063 0 0 1 6.589-12.941 1 1 0 0 0-1.178-1.616z"/></svg>