<?xml version="1.0" encoding="UTF-8"?>
<svg xmlns="http://www.w3.org/2000/svg" xmlns:xlink="http://www.w3.org/1999/xlink" width="768pt" height="767.999994pt" viewBox="0 0 768 767.999994" version="1.2">
<defs>
<clipPath id="clip1">
  <path d="M 197.28125 331 L 570.78125 331 L 570.78125 665 L 197.28125 665 Z M 197.28125 331 "/>
</clipPath>
</defs>
<g id="surface1">
<path style=" stroke:none;fill-rule:nonzero;fill:rgb(100%,100%,100%);fill-opacity:1;" d="M 402.246094 -0.125 L 365.832031 -0.125 C 306.484375 -0.125 258.390625 44.515625 258.390625 99.582031 L 258.390625 297.699219 L 509.675781 297.699219 L 509.675781 99.582031 C 509.675781 44.515625 461.570312 -0.125 402.246094 -0.125 Z M 402.246094 21.789062 C 449.40625 21.789062 487.757812 56.691406 487.757812 99.582031 L 487.757812 275.785156 L 280.308594 275.785156 L 280.308594 99.582031 C 280.308594 56.691406 318.671875 21.789062 365.832031 21.789062 L 402.246094 21.789062 "/>
<path style=" stroke:none;fill-rule:nonzero;fill:rgb(100%,100%,100%);fill-opacity:1;" d="M 509.675781 297.699219 L 509.675781 495.796875 C 509.675781 550.882812 461.570312 595.515625 402.246094 595.515625 L 365.832031 595.515625 C 306.484375 595.515625 258.390625 550.882812 258.390625 495.796875 L 258.390625 297.699219 L 509.675781 297.699219 "/>
<g clip-path="url(#clip1)" clip-rule="nonzero">
<path style=" stroke:none;fill-rule:nonzero;fill:rgb(100%,100%,100%);fill-opacity:1;" d="M 227.054688 360.664062 L 227.054688 513.796875 C 227.054688 580.820312 286.316406 635.359375 359.171875 635.359375 L 408.898438 635.359375 C 481.742188 635.359375 541.015625 580.820312 541.015625 513.796875 L 541.015625 360.664062 Z M 408.898438 664.566406 L 359.171875 664.566406 C 270.214844 664.566406 197.847656 596.929688 197.847656 513.796875 L 197.847656 331.445312 L 570.21875 331.445312 L 570.21875 513.796875 C 570.21875 596.929688 497.855469 664.566406 408.898438 664.566406 "/>
</g>
<path style=" stroke:none;fill-rule:nonzero;fill:rgb(100%,100%,100%);fill-opacity:1;" d="M 495.761719 90.167969 L 429.441406 90.167969 C 422.117188 90.167969 416.171875 95.671875 416.171875 102.476562 C 416.171875 109.273438 422.117188 114.785156 429.441406 114.785156 L 495.761719 114.785156 L 495.761719 90.167969 "/>
<path style=" stroke:none;fill-rule:nonzero;fill:rgb(100%,100%,100%);fill-opacity:1;" d="M 495.761719 136.484375 L 429.441406 136.484375 C 422.117188 136.484375 416.171875 141.988281 416.171875 148.792969 C 416.171875 155.589844 422.117188 161.101562 429.441406 161.101562 L 495.761719 161.101562 L 495.761719 136.484375 "/>
<path style=" stroke:none;fill-rule:nonzero;fill:rgb(100%,100%,100%);fill-opacity:1;" d="M 495.761719 182.789062 L 429.441406 182.789062 C 422.117188 182.789062 416.171875 188.292969 416.171875 195.109375 C 416.171875 201.902344 422.117188 207.410156 429.441406 207.410156 L 495.761719 207.410156 L 495.761719 182.789062 "/>
<path style=" stroke:none;fill-rule:nonzero;fill:rgb(100%,100%,100%);fill-opacity:1;" d="M 420.503906 717.742188 L 347.542969 717.742188 L 347.542969 588.480469 L 420.503906 588.480469 L 420.503906 717.742188 "/>
<path style=" stroke:none;fill-rule:nonzero;fill:rgb(100%,100%,100%);fill-opacity:1;" d="M 525.394531 767.855469 C 522.53125 738.773438 496.199219 715.972656 464.089844 715.972656 L 303.96875 715.972656 C 271.878906 715.972656 245.539062 738.773438 242.65625 767.855469 L 525.394531 767.855469 "/>
</g>
</svg>
