<?xml version="1.0" encoding="UTF-8"?>
<svg xmlns="http://www.w3.org/2000/svg" xmlns:xlink="http://www.w3.org/1999/xlink" width="768pt" height="767.999994pt" viewBox="0 0 768 767.999994" version="1.2">
<defs>
<clipPath id="clip1">
  <path d="M 197.28125 331 L 570.78125 331 L 570.78125 665 L 197.28125 665 Z M 197.28125 331 "/>
</clipPath>
</defs>
<g id="surface1">
<path style=" stroke:none;fill-rule:nonzero;fill:rgb(100%,100%,100%);fill-opacity:1;" d="M 402.246094 -0.125 L 365.832031 -0.125 C 306.484375 -0.125 258.390625 44.515625 258.390625 99.582031 L 258.390625 297.699219 L 509.675781 297.699219 L 509.675781 99.582031 C 509.675781 44.515625 461.570312 -0.125 402.246094 -0.125 Z M 402.246094 21.789062 C 449.40625 21.789062 487.757812 56.691406 487.757812 99.582031 L 487.757812 275.785156 L 280.308594 275.785156 L 280.308594 99.582031 C 280.308594 56.691406 318.671875 21.789062 365.832031 21.789062 L 402.246094 21.789062 "/>
<path style=" stroke:none;fill-rule:nonzero;fill:rgb(100%,100%,100%);fill-opacity:1;" d="M 509.675781 297.699219 L 509.675781 495.796875 C 509.675781 550.882812 461.570312 595.515625 402.246094 595.515625 L 365.832031 595.515625 C 306.484375 595.515625 258.390625 550.882812 258.390625 495.796875 L 258.390625 297.699219 L 509.675781 297.699219 "/>
<g clip-path="url(#clip1)" clip-rule="nonzero">
<path style=" stroke:none;fill-rule:nonzero;fill:rgb(100%,100%,100%);fill-opacity:1;" d="M 227.054688 360.664062 L 227.054688 513.796875 C 227.054688 580.820312 286.316406 635.359375 359.171875 635.359375 L 408.898438 635.359375 C 481.742188 635.359375 541.015625 580.820312 541.015625 513.796875 L 541.015625 360.664062 Z M 408.898438 664.566406 L 359.171875 664.566406 C 270.214844 664.566406 197.847656 596.929688 197.847656 513.796875 L 197.847656 331.445312 L 570.21875 331.445312 L 570.21875 513.796875 C 570.21875 596.929688 497.855469 664.566406 408.898438 664.566406 "/>
</g>
<path style=" stroke:none;fill-rule:nonzero;fill:rgb(100%,100%,100%);fill-opacity:1;" d="M 495.761719 90.167969 L 429.441406 90.167969 C 422.117188 90.167969 416.171875 95.671875 416.171875 102.476562 C 416.171875 109.273438 422.117188 114.785156 429.441406 114.785156 L 495.761719 114.785156 L 495.761719 90.167969 "/>
<path style=" stroke:none;fill-rule:nonzero;fill:rgb(100%,100%,100%);fill-opacity:1;" d="M 495.761719 136.484375 L 429.441406 136.484375 C 422.117188 136.484375 416.171875 141.988281 416.171875 148.792969 C 416.171875 155.589844 422.117188 161.101562 429.441406 161.101562 L 495.761719 161.101562 L 495.761719 136.484375 "/>
<path style=" stroke:none;fill-rule:nonzero;fill:rgb(100%,100%,100%);fill-opacity:1;" d="M 495.761719 182.789062 L 429.441406 182.789062 C 422.117188 182.789062 416.171875 188.292969 416.171875 195.109375 C 416.171875 201.902344 422.117188 207.410156 429.441406 207.410156 L 495.761719 207.410156 L 495.761719 182.789062 "/>
<path style=" stroke:none;fill-rule:nonzero;fill:rgb(100%,100%,100%);fill-opacity:1;" d="M 420.503906 717.742188 L 347.542969 717.742188 L 347.542969 588.480469 L 420.503906 588.480469 L 420.503906 717.742188 "/>
<path style=" stroke:none;fill-rule:nonzero;fill:rgb(100%,100%,100%);fill-opacity:1;" d="M 525.394531 767.855469 C 522.53125 738.773438 496.199219 715.972656 464.089844 715.972656 L 303.96875 715.972656 C 271.878906 715.972656 245.539062 738.773438 242.65625 767.855469 L 525.394531 767.855469 "/>
<path style=" stroke:none;fill-rule:nonzero;fill:rgb(100%,100%,100%);fill-opacity:1;" d="M 662.007812 54.84375 C 660.015625 54.902344 658.046875 55.152344 656.101562 55.589844 C 654.15625 56.03125 652.273438 56.652344 650.449219 57.457031 C 648.625 58.257812 646.894531 59.230469 645.257812 60.367188 C 643.621094 61.503906 642.105469 62.789062 640.71875 64.21875 L 83.34375 621.59375 C 82.601562 622.304688 81.898438 623.050781 81.230469 623.832031 C 80.5625 624.617188 79.9375 625.429688 79.351562 626.273438 C 78.765625 627.117188 78.222656 627.988281 77.722656 628.886719 C 77.222656 629.78125 76.769531 630.703125 76.363281 631.648438 C 75.957031 632.589844 75.59375 633.550781 75.285156 634.53125 C 74.972656 635.507812 74.710938 636.5 74.496094 637.503906 C 74.28125 638.511719 74.121094 639.523438 74.007812 640.546875 C 73.894531 641.566406 73.832031 642.589844 73.824219 643.617188 C 73.8125 644.644531 73.851562 645.671875 73.945312 646.695312 C 74.035156 647.71875 74.179688 648.734375 74.371094 649.742188 C 74.5625 650.75 74.804688 651.75 75.097656 652.734375 C 75.390625 653.71875 75.730469 654.6875 76.117188 655.636719 C 76.507812 656.589844 76.941406 657.519531 77.421875 658.425781 C 77.902344 659.335938 78.429688 660.214844 78.996094 661.074219 C 79.566406 661.929688 80.175781 662.753906 80.828125 663.546875 C 81.476562 664.34375 82.164062 665.105469 82.890625 665.832031 C 83.617188 666.558594 84.378906 667.246094 85.175781 667.898438 C 85.96875 668.546875 86.792969 669.15625 87.652344 669.726562 C 88.507812 670.292969 89.386719 670.820312 90.296875 671.300781 C 91.203125 671.78125 92.132812 672.214844 93.085938 672.605469 C 94.035156 672.992188 95.003906 673.332031 95.988281 673.625 C 96.972656 673.917969 97.972656 674.160156 98.980469 674.351562 C 99.988281 674.542969 101.003906 674.6875 102.027344 674.777344 C 103.050781 674.871094 104.078125 674.910156 105.105469 674.898438 C 106.132812 674.890625 107.15625 674.828125 108.179688 674.714844 C 109.199219 674.601562 110.210938 674.441406 111.21875 674.226562 C 112.222656 674.011719 113.214844 673.75 114.191406 673.4375 C 115.171875 673.128906 116.132812 672.765625 117.074219 672.359375 C 118.019531 671.953125 118.941406 671.5 119.835938 671 C 120.734375 670.5 121.605469 669.957031 122.449219 669.371094 C 123.292969 668.785156 124.105469 668.160156 124.890625 667.492188 C 125.671875 666.824219 126.417969 666.121094 127.128906 665.382812 L 684.503906 108.003906 C 685.617188 106.921875 686.644531 105.765625 687.582031 104.53125 C 688.519531 103.292969 689.359375 101.996094 690.101562 100.632812 C 690.847656 99.273438 691.484375 97.863281 692.015625 96.40625 C 692.546875 94.949219 692.964844 93.460938 693.273438 91.9375 C 693.582031 90.417969 693.773438 88.882812 693.851562 87.335938 C 693.925781 85.785156 693.886719 84.238281 693.730469 82.695312 C 693.578125 81.152344 693.308594 79.628906 692.921875 78.125 C 692.539062 76.621094 692.042969 75.15625 691.4375 73.730469 C 690.835938 72.300781 690.125 70.925781 689.316406 69.601562 C 688.503906 68.28125 687.597656 67.027344 686.597656 65.839844 C 685.597656 64.652344 684.515625 63.550781 683.351562 62.527344 C 682.183594 61.503906 680.949219 60.570312 679.644531 59.734375 C 678.339844 58.894531 676.976562 58.160156 675.5625 57.527344 C 674.144531 56.894531 672.691406 56.371094 671.195312 55.957031 C 669.699219 55.542969 668.183594 55.242188 666.640625 55.054688 C 665.101562 54.867188 663.558594 54.796875 662.007812 54.84375 Z M 662.007812 54.84375 "/>
</g>
</svg>
